#N canvas 496 268 450 300 10;
#X declare -path utils;
#X obj 164 18 inlet;
#X obj 140 169 osc~ 440;
#X obj 194 220 *~;
#X obj 17 59 declare -path utils;
#X obj 255 153 c_ead 20 1000;
#X obj 281 117 min 20;
#X obj 350 117 - 20;
#X obj 192 257 outlet~;
#X obj 269 258 dac~;
#X msg 279 12 440 2000 1.2 0.9 3.25;
#X text 367 26 test msg;
#X obj 143 108 * \$1;
#X obj 269 184 *~ \$2;
#X obj 282 90 * \$3;
#X obj 164 58 unpack f f;
#X text 297 58 freq \, dur;
#X text 34 12 Risset Voice Partial;
#X text 29 27 \$1=fs \$2=as \$3=ts;
#X connect 0 0 14 0;
#X connect 1 0 2 0;
#X connect 2 0 7 0;
#X connect 4 0 12 0;
#X connect 5 0 6 1;
#X connect 5 0 4 1;
#X connect 6 0 4 2;
#X connect 9 0 14 0;
#X connect 11 0 1 0;
#X connect 12 0 2 1;
#X connect 13 0 6 0;
#X connect 13 0 5 0;
#X connect 14 0 11 0;
#X connect 14 1 4 0;
#X connect 14 1 13 0;
