#N canvas 982 254 509 603 10;
#X declare -path utils;
#X declare -path utils;
#X declare -path utils;
#X declare -path utils;
#X declare -path utils;
#X declare -path utils;
#X declare -path utils;
#X declare -path utils;
#X declare -path utils;
#X declare -path utils;
#X declare -path utils;
#X declare -path utils;
#X obj 16 34 declare -path utils;
#X obj 154 34 inlet;
#X text 357 58 test;
#X obj 177 452 outlet~;
#X obj 269 453 dac~;
#X obj 178 429 *~ 1;
#X obj 291 159 risset~ 0.56001 0.67 0.9;
#X obj 291 137 risset~ 0.56 1 1;
#X obj 290 183 risset~ 0.92 1.35 0.65;
#X obj 291 206 risset~ 0.92001 1.8 0.55;
#X obj 291 231 risset~ 1.19 2.67 0.325;
#X obj 294 258 risset~ 1.7 1.67 0.35;
#X obj 294 286 risset~ 2 1.46 0.25;
#X obj 294 310 risset~ 2.74 1.33 0.2;
#X obj 296 336 risset~ 3 1.33 0.15;
#X obj 294 360 risset~ 3.75 0.75 0.1;
#X obj 292 387 risset~ 4.07 1.83 0.075;
#X msg 161 112 \$1 \$2;
#X msg 341 35 440 6000;
#X connect 1 0 17 0;
#X connect 5 0 3 0;
#X connect 6 0 5 0;
#X connect 7 0 5 0;
#X connect 8 0 5 0;
#X connect 9 0 5 0;
#X connect 10 0 5 0;
#X connect 11 0 5 0;
#X connect 12 0 5 0;
#X connect 13 0 5 0;
#X connect 14 0 5 0;
#X connect 15 0 5 0;
#X connect 16 0 5 0;
#X connect 17 0 6 0;
#X connect 17 0 7 0;
#X connect 17 0 8 0;
#X connect 17 0 9 0;
#X connect 17 0 10 0;
#X connect 17 0 11 0;
#X connect 17 0 12 0;
#X connect 17 0 13 0;
#X connect 17 0 14 0;
#X connect 17 0 15 0;
#X connect 17 0 16 0;
#X connect 18 0 17 0;
