#N canvas 19 609 1104 374 10;
#X declare -path utils;
#X declare -path utils;
#X declare -path utils;
#X declare -path utils;
#X declare -path utils;
#X declare -path utils;
#X declare -path utils;
#X declare -path utils;
#X declare -path utils;
#X declare -path utils;
#X declare -path utils;
#X declare -path utils;
#X declare -path utils;
#X declare -path utils;
#X declare -path utils;
#X declare -path utils;
#X declare -path utils;
#X declare -path utils;
#X declare -path utils;
#X declare -path utils;
#X declare -path utils;
#X declare -path utils;
#X declare -path utils;
#X declare -path utils;
#X declare -path utils;
#X declare -path utils;
#X declare -path utils;
#X declare -path utils;
#X declare -path utils;
#X declare -path utils;
#X declare -path utils;
#X declare -path utils;
#X declare -path utils;
#X declare -path utils;
#X declare -path utils;
#X declare -path utils;
#X declare -path utils;
#X declare -path utils;
#X declare -path utils;
#X declare -path utils;
#X declare -path utils;
#X declare -path utils;
#X declare -path utils;
#X declare -path utils;
#X declare -path utils;
#X declare -path utils;
#X declare -path utils;
#X declare -path utils;
#X declare -path utils;
#X declare -path utils;
#X declare -path utils;
#X declare -path utils;
#X declare -path utils;
#X declare -path utils;
#X declare -path utils;
#X declare -path utils;
#X declare -path utils;
#X declare -path utils;
#X declare -path utils;
#X declare -path utils;
#X declare -path utils;
#X declare -path utils;
#X declare -path utils;
#X declare -path utils;
#X declare -path utils;
#X declare -path utils;
#X declare -path utils;
#X declare -path utils;
#X declare -path utils;
#X declare -path utils;
#X declare -path utils;
#X declare -path utils;
#X declare -path utils;
#X declare -path utils;
#X declare -path utils;
#X declare -path utils;
#X declare -path utils;
#X declare -path utils;
#X declare -path utils;
#X declare -path utils;
#X declare -path utils;
#X declare -path utils;
#X declare -path utils;
#X declare -path utils;
#X declare -path utils;
#X declare -path utils;
#X declare -path utils;
#X declare -path utils;
#X declare -path utils;
#X declare -path utils;
#X declare -path utils;
#X declare -path utils;
#X declare -path utils;
#X declare -path utils;
#X declare -path utils;
#X declare -path utils;
#X declare -path utils;
#X declare -path utils;
#X declare -path utils;
#X declare -path utils;
#X declare -path utils;
#X declare -path utils;
#X declare -path utils;
#X declare -path utils;
#X declare -path utils;
#X declare -path utils;
#X declare -path utils;
#X declare -path utils;
#X declare -path utils;
#X declare -path utils;
#X declare -path utils;
#X declare -path utils;
#X declare -path utils;
#X declare -path utils;
#X declare -path utils;
#X declare -path utils;
#X declare -path utils;
#X declare -path utils;
#X declare -path utils;
#X declare -path utils;
#X declare -path utils;
#X declare -path utils;
#X declare -path utils;
#X declare -path utils;
#X declare -path utils;
#X declare -path utils;
#X declare -path utils;
#X declare -path utils;
#X declare -path utils;
#X declare -path utils;
#X declare -path utils;
#X declare -path utils;
#X obj 53 95 netreceive 3000 1;
#X obj 231 94 netreceive 3001;
#X floatatom 393 119 5 0 0 0 active_connections - -;
#X msg 493 60 connect localhost 3002;
#X msg 510 96 disconnect;
#X floatatom 495 192 5 0 0 0 - - -;
#X obj 496 158 netsend;
#X msg 507 124 send foo 10 20 30;
#X obj 772 27 r noteplay;
#X text 655 158 note \, vel \, dur;
#N canvas 758 385 954 486 myorgan_nvd 0;
#X obj 67 88 organ24~;
#X obj 68 27 inlet;
#X obj 40 157 throw~ aout;
#X obj 132 156 throw~ bout;
#X connect 0 0 2 0;
#X connect 0 0 3 0;
#X connect 1 0 0 0;
#X restore 660 136 pd myorgan_nvd;
#N canvas 250 251 307 237 myorgan_fav 0;
#X obj 78 37 inlet;
#X obj 55 164 throw~ aout;
#X obj 147 163 throw~ bout;
#X obj 77 98 organ48~;
#X connect 0 0 3 0;
#X connect 3 0 1 0;
#X connect 3 0 2 0;
#X restore 787 136 pd myorgan_fav;
#X obj 702 198 catch~ aout;
#X obj 781 198 catch~ bout;
#X obj 762 327 dac~;
#X obj 793 243 rev3~ 100 92 3000 40;
#X obj 742 275 +~;
#X obj 781 277 +~;
#X text 787 158 freq \, amp \, dur;
#X obj 209 239 s noteplay;
#N canvas 38 196 1307 591 myorgan_vfad 0;
#X text 20 8 Created with makeorgan2.pl 60 | pdsend 3002 localhost
;
#X obj 648 40 r notebus_vfad;
#X obj 648 200 route 0 1 2 3 4 5 6 7 8 9 10 11 12 13 14 15 16 17 18
19 20 21 22 23 24 25 26 27 28 29 30 31 32 33 34 35 36 37 38 39 40 41
42 43 44 45 46 47 48 49 50 51 52 53 54 55 56 57 58 59;
#X obj 648 360 *~ 0.0166667;
#X obj 598 420 throw~ aout;
#X obj 698 420 throw~ bout;
#X obj 48 260 voice_fav~;
#X obj 68 261 voice_fav~;
#X obj 88 263 voice_fav~;
#X obj 108 264 voice_fav~;
#X obj 128 266 voice_fav~;
#X obj 148 267 voice_fav~;
#X obj 168 269 voice_fav~;
#X obj 188 270 voice_fav~;
#X obj 208 272 voice_fav~;
#X obj 228 273 voice_fav~;
#X obj 248 274 voice_fav~;
#X obj 268 276 voice_fav~;
#X obj 288 277 voice_fav~;
#X obj 308 278 voice_fav~;
#X obj 328 280 voice_fav~;
#X obj 348 281 voice_fav~;
#X obj 368 282 voice_fav~;
#X obj 388 283 voice_fav~;
#X obj 408 284 voice_fav~;
#X obj 428 285 voice_fav~;
#X obj 448 285 voice_fav~;
#X obj 468 286 voice_fav~;
#X obj 488 287 voice_fav~;
#X obj 508 288 voice_fav~;
#X obj 528 288 voice_fav~;
#X obj 548 288 voice_fav~;
#X obj 568 289 voice_fav~;
#X obj 588 289 voice_fav~;
#X obj 608 289 voice_fav~;
#X obj 628 289 voice_fav~;
#X obj 648 289 voice_fav~;
#X obj 668 289 voice_fav~;
#X obj 688 289 voice_fav~;
#X obj 708 289 voice_fav~;
#X obj 728 289 voice_fav~;
#X obj 748 288 voice_fav~;
#X obj 768 288 voice_fav~;
#X obj 788 288 voice_fav~;
#X obj 808 287 voice_fav~;
#X obj 828 286 voice_fav~;
#X obj 848 285 voice_fav~;
#X obj 868 285 voice_fav~;
#X obj 888 284 voice_fav~;
#X obj 908 283 voice_fav~;
#X obj 928 282 voice_fav~;
#X obj 948 281 voice_fav~;
#X obj 968 280 voice_fav~;
#X obj 988 278 voice_fav~;
#X obj 1008 277 voice_fav~;
#X obj 1028 276 voice_fav~;
#X obj 1048 275 voice_fav~;
#X obj 1068 273 voice_fav~;
#X obj 1088 272 voice_fav~;
#X obj 1108 270 voice_fav~;
#X obj 1128 269 voice_fav~;
#X obj 1148 267 voice_fav~;
#X obj 1168 266 voice_fav~;
#X obj 1188 264 voice_fav~;
#X obj 1208 263 voice_fav~;
#X obj 1228 261 voice_fav~;
#X connect 1 0 2 0;
#X connect 2 0 6 0;
#X connect 2 1 7 0;
#X connect 2 2 8 0;
#X connect 2 3 9 0;
#X connect 2 4 10 0;
#X connect 2 5 11 0;
#X connect 2 6 12 0;
#X connect 2 7 13 0;
#X connect 2 8 14 0;
#X connect 2 9 15 0;
#X connect 2 10 16 0;
#X connect 2 11 17 0;
#X connect 2 12 18 0;
#X connect 2 13 19 0;
#X connect 2 14 20 0;
#X connect 2 15 21 0;
#X connect 2 16 22 0;
#X connect 2 17 23 0;
#X connect 2 18 24 0;
#X connect 2 19 25 0;
#X connect 2 20 26 0;
#X connect 2 21 27 0;
#X connect 2 22 28 0;
#X connect 2 23 29 0;
#X connect 2 24 30 0;
#X connect 2 25 31 0;
#X connect 2 26 32 0;
#X connect 2 27 33 0;
#X connect 2 28 34 0;
#X connect 2 29 35 0;
#X connect 2 30 36 0;
#X connect 2 31 37 0;
#X connect 2 32 38 0;
#X connect 2 33 39 0;
#X connect 2 34 40 0;
#X connect 2 35 41 0;
#X connect 2 36 42 0;
#X connect 2 37 43 0;
#X connect 2 38 44 0;
#X connect 2 39 45 0;
#X connect 2 40 46 0;
#X connect 2 41 47 0;
#X connect 2 42 48 0;
#X connect 2 43 49 0;
#X connect 2 44 50 0;
#X connect 2 45 51 0;
#X connect 2 46 52 0;
#X connect 2 47 53 0;
#X connect 2 48 54 0;
#X connect 2 49 55 0;
#X connect 2 50 56 0;
#X connect 2 51 57 0;
#X connect 2 52 58 0;
#X connect 2 53 59 0;
#X connect 2 54 60 0;
#X connect 2 55 61 0;
#X connect 2 56 62 0;
#X connect 2 57 63 0;
#X connect 2 58 64 0;
#X connect 2 59 65 0;
#X connect 3 0 4 0;
#X connect 3 0 5 0;
#X connect 6 0 3 0;
#X connect 7 0 3 0;
#X connect 8 0 3 0;
#X connect 9 0 3 0;
#X connect 10 0 3 0;
#X connect 11 0 3 0;
#X connect 12 0 3 0;
#X connect 13 0 3 0;
#X connect 14 0 3 0;
#X connect 15 0 3 0;
#X connect 16 0 3 0;
#X connect 17 0 3 0;
#X connect 18 0 3 0;
#X connect 19 0 3 0;
#X connect 20 0 3 0;
#X connect 21 0 3 0;
#X connect 22 0 3 0;
#X connect 23 0 3 0;
#X connect 24 0 3 0;
#X connect 25 0 3 0;
#X connect 26 0 3 0;
#X connect 27 0 3 0;
#X connect 28 0 3 0;
#X connect 29 0 3 0;
#X connect 30 0 3 0;
#X connect 31 0 3 0;
#X connect 32 0 3 0;
#X connect 33 0 3 0;
#X connect 34 0 3 0;
#X connect 35 0 3 0;
#X connect 36 0 3 0;
#X connect 37 0 3 0;
#X connect 38 0 3 0;
#X connect 39 0 3 0;
#X connect 40 0 3 0;
#X connect 41 0 3 0;
#X connect 42 0 3 0;
#X connect 43 0 3 0;
#X connect 44 0 3 0;
#X connect 45 0 3 0;
#X connect 46 0 3 0;
#X connect 47 0 3 0;
#X connect 48 0 3 0;
#X connect 49 0 3 0;
#X connect 50 0 3 0;
#X connect 51 0 3 0;
#X connect 52 0 3 0;
#X connect 53 0 3 0;
#X connect 54 0 3 0;
#X connect 55 0 3 0;
#X connect 56 0 3 0;
#X connect 57 0 3 0;
#X connect 58 0 3 0;
#X connect 59 0 3 0;
#X connect 60 0 3 0;
#X connect 61 0 3 0;
#X connect 62 0 3 0;
#X connect 63 0 3 0;
#X connect 64 0 3 0;
#X connect 65 0 3 0;
#X restore 909 135 pd myorgan_vfad;
#X text 905 160 voice \, freq \, amp \, dur;
#X msg 254 199 1 440 0.5 2000;
#X obj 30 229 netreceive 3002;
#X floatatom 136 253 5 0 0 0 - - -;
#X obj 31 282 s pd-myorgan_vfad;
#X text 254 174 patch testing;
#X obj 912 96 s notebus_vfad;
#X text 803 75;
#X obj 787 97 s notebus_fav;
#X obj 656 98 s notebus_nvd;
#X text -1 306 example: ./makeorgan2.pl 60 | pdsend 3002 localhost
;
#X text 198 50 use Processing script whitney_pd_tcp to generate notes
and make visuals;
#X text 28 206;
#X text 5 191 use makeorgan2.pl for organ patch building voa port #3002
;
#X connect 0 0 19 0;
#X connect 1 0 19 0;
#X connect 1 1 2 0;
#X connect 3 0 6 0;
#X connect 4 0 6 0;
#X connect 6 0 5 0;
#X connect 7 0 6 0;
#X connect 8 0 27 0;
#X connect 12 0 16 0;
#X connect 12 0 15 0;
#X connect 13 0 17 0;
#X connect 13 0 15 1;
#X connect 15 0 16 1;
#X connect 15 1 17 1;
#X connect 16 0 14 0;
#X connect 17 0 14 1;
#X connect 22 0 19 0;
#X connect 23 0 25 0;
#X connect 23 1 24 0;
