#N canvas 214 576 1856 460 10;
#X declare -path utils;
#X declare -path utils;
#X declare -path utils;
#X declare -path utils;
#X declare -path utils;
#X declare -path utils;
#X declare -path utils;
#X declare -path utils;
#X declare -path utils;
#X declare -path utils;
#X declare -path utils;
#X declare -path utils;
#X declare -path utils;
#X declare -path utils;
#X declare -path utils;
#X declare -path utils;
#X declare -path utils;
#X declare -path utils;
#X declare -path utils;
#X declare -path utils;
#X declare -path utils;
#X declare -path utils;
#X declare -path utils;
#X declare -path utils;
#X declare -path utils;
#X declare -path utils;
#X declare -path utils;
#X declare -path utils;
#X declare -path utils;
#X declare -path utils;
#X declare -path utils;
#X declare -path utils;
#X declare -path utils;
#X declare -path utils;
#X declare -path utils;
#X declare -path utils;
#X declare -path utils;
#X declare -path utils;
#X declare -path utils;
#X declare -path utils;
#X declare -path utils;
#X declare -path utils;
#X declare -path utils;
#X declare -path utils;
#X declare -path utils;
#X declare -path utils;
#X declare -path utils;
#X declare -path utils;
#X declare -path utils;
#X declare -path utils;
#X declare -path utils;
#X declare -path utils;
#X declare -path utils;
#X declare -path utils;
#X declare -path utils;
#X declare -path utils;
#X declare -path utils;
#X declare -path utils;
#X declare -path utils;
#X declare -path utils;
#X declare -path utils;
#X declare -path utils;
#X declare -path utils;
#X declare -path utils;
#X declare -path utils;
#X declare -path utils;
#X declare -path utils;
#X declare -path utils;
#X declare -path utils;
#X declare -path utils;
#X declare -path utils;
#X declare -path utils;
#X declare -path utils;
#X declare -path utils;
#X declare -path utils;
#X declare -path utils;
#X declare -path utils;
#X declare -path utils;
#X declare -path utils;
#X declare -path utils;
#X declare -path utils;
#X declare -path utils;
#X declare -path utils;
#X declare -path utils;
#X declare -path utils;
#X declare -path utils;
#X declare -path utils;
#X declare -path utils;
#X text 20 8 Created with makeorgan.pl;
#X obj 928 40 inlet;
#X obj 928 80 unpack f f f;
#X obj 928 120 mod 88;
#X obj 928 160 pack f f f;
#X obj 928 360 *~ 0.0113636;
#X obj 928 200 route 0 1 2 3 4 5 6 7 8 9 10 11 12 13 14 15 16 17 18
19 20 21 22 23 24 25 26 27 28 29 30 31 32 33 34 35 36 37 38 39 40 41
42 43 44 45 46 47 48 49 50 51 52 53 54 55 56 57 58 59 60 61 62 63 64
65 66 67 68 69 70 71 72 73 74 75 76 77 78 79 80 81 82 83 84 85 86 87
;
#X obj 928 420 outlet~;
#X obj 48 260 voice~;
#X obj 68 261 voice~;
#X obj 88 262 voice~;
#X obj 108 263 voice~;
#X obj 128 264 voice~;
#X obj 148 265 voice~;
#X obj 168 266 voice~;
#X obj 188 267 voice~;
#X obj 208 268 voice~;
#X obj 228 269 voice~;
#X obj 248 270 voice~;
#X obj 268 271 voice~;
#X obj 288 272 voice~;
#X obj 308 273 voice~;
#X obj 328 274 voice~;
#X obj 348 275 voice~;
#X obj 368 276 voice~;
#X obj 388 277 voice~;
#X obj 408 277 voice~;
#X obj 428 278 voice~;
#X obj 448 279 voice~;
#X obj 468 280 voice~;
#X obj 488 281 voice~;
#X obj 508 281 voice~;
#X obj 528 282 voice~;
#X obj 548 283 voice~;
#X obj 568 284 voice~;
#X obj 588 284 voice~;
#X obj 608 285 voice~;
#X obj 628 285 voice~;
#X obj 648 286 voice~;
#X obj 668 286 voice~;
#X obj 688 287 voice~;
#X obj 708 287 voice~;
#X obj 728 288 voice~;
#X obj 748 288 voice~;
#X obj 768 288 voice~;
#X obj 788 289 voice~;
#X obj 808 289 voice~;
#X obj 828 289 voice~;
#X obj 848 289 voice~;
#X obj 868 289 voice~;
#X obj 888 289 voice~;
#X obj 908 289 voice~;
#X obj 928 289 voice~;
#X obj 948 289 voice~;
#X obj 968 289 voice~;
#X obj 988 289 voice~;
#X obj 1008 289 voice~;
#X obj 1028 289 voice~;
#X obj 1048 289 voice~;
#X obj 1068 289 voice~;
#X obj 1088 288 voice~;
#X obj 1108 288 voice~;
#X obj 1128 288 voice~;
#X obj 1148 287 voice~;
#X obj 1168 287 voice~;
#X obj 1188 286 voice~;
#X obj 1208 286 voice~;
#X obj 1228 285 voice~;
#X obj 1248 285 voice~;
#X obj 1268 284 voice~;
#X obj 1288 284 voice~;
#X obj 1308 283 voice~;
#X obj 1328 282 voice~;
#X obj 1348 281 voice~;
#X obj 1368 281 voice~;
#X obj 1388 280 voice~;
#X obj 1408 279 voice~;
#X obj 1428 278 voice~;
#X obj 1448 277 voice~;
#X obj 1468 277 voice~;
#X obj 1488 276 voice~;
#X obj 1508 275 voice~;
#X obj 1528 274 voice~;
#X obj 1548 273 voice~;
#X obj 1568 272 voice~;
#X obj 1588 271 voice~;
#X obj 1608 270 voice~;
#X obj 1628 269 voice~;
#X obj 1648 268 voice~;
#X obj 1668 267 voice~;
#X obj 1688 266 voice~;
#X obj 1708 265 voice~;
#X obj 1728 264 voice~;
#X obj 1748 263 voice~;
#X obj 1768 262 voice~;
#X obj 1788 261 voice~;
#X connect 1 0 2 0;
#X connect 2 0 3 0;
#X connect 2 1 4 1;
#X connect 2 2 4 2;
#X connect 3 0 4 0;
#X connect 4 0 6 0;
#X connect 5 0 7 0;
#X connect 6 0 8 0;
#X connect 6 1 9 0;
#X connect 6 2 10 0;
#X connect 6 3 11 0;
#X connect 6 4 12 0;
#X connect 6 5 13 0;
#X connect 6 6 14 0;
#X connect 6 7 15 0;
#X connect 6 8 16 0;
#X connect 6 9 17 0;
#X connect 6 10 18 0;
#X connect 6 11 19 0;
#X connect 6 12 20 0;
#X connect 6 13 21 0;
#X connect 6 14 22 0;
#X connect 6 15 23 0;
#X connect 6 16 24 0;
#X connect 6 17 25 0;
#X connect 6 18 26 0;
#X connect 6 19 27 0;
#X connect 6 20 28 0;
#X connect 6 21 29 0;
#X connect 6 22 30 0;
#X connect 6 23 31 0;
#X connect 6 24 32 0;
#X connect 6 25 33 0;
#X connect 6 26 34 0;
#X connect 6 27 35 0;
#X connect 6 28 36 0;
#X connect 6 29 37 0;
#X connect 6 30 38 0;
#X connect 6 31 39 0;
#X connect 6 32 40 0;
#X connect 6 33 41 0;
#X connect 6 34 42 0;
#X connect 6 35 43 0;
#X connect 6 36 44 0;
#X connect 6 37 45 0;
#X connect 6 38 46 0;
#X connect 6 39 47 0;
#X connect 6 40 48 0;
#X connect 6 41 49 0;
#X connect 6 42 50 0;
#X connect 6 43 51 0;
#X connect 6 44 52 0;
#X connect 6 45 53 0;
#X connect 6 46 54 0;
#X connect 6 47 55 0;
#X connect 6 48 56 0;
#X connect 6 49 57 0;
#X connect 6 50 58 0;
#X connect 6 51 59 0;
#X connect 6 52 60 0;
#X connect 6 53 61 0;
#X connect 6 54 62 0;
#X connect 6 55 63 0;
#X connect 6 56 64 0;
#X connect 6 57 65 0;
#X connect 6 58 66 0;
#X connect 6 59 67 0;
#X connect 6 60 68 0;
#X connect 6 61 69 0;
#X connect 6 62 70 0;
#X connect 6 63 71 0;
#X connect 6 64 72 0;
#X connect 6 65 73 0;
#X connect 6 66 74 0;
#X connect 6 67 75 0;
#X connect 6 68 76 0;
#X connect 6 69 77 0;
#X connect 6 70 78 0;
#X connect 6 71 79 0;
#X connect 6 72 80 0;
#X connect 6 73 81 0;
#X connect 6 74 82 0;
#X connect 6 75 83 0;
#X connect 6 76 84 0;
#X connect 6 77 85 0;
#X connect 6 78 86 0;
#X connect 6 79 87 0;
#X connect 6 80 88 0;
#X connect 6 81 89 0;
#X connect 6 82 90 0;
#X connect 6 83 91 0;
#X connect 6 84 92 0;
#X connect 6 85 93 0;
#X connect 6 86 94 0;
#X connect 6 87 95 0;
#X connect 8 0 5 0;
#X connect 9 0 5 0;
#X connect 10 0 5 0;
#X connect 11 0 5 0;
#X connect 12 0 5 0;
#X connect 13 0 5 0;
#X connect 14 0 5 0;
#X connect 15 0 5 0;
#X connect 16 0 5 0;
#X connect 17 0 5 0;
#X connect 18 0 5 0;
#X connect 19 0 5 0;
#X connect 20 0 5 0;
#X connect 21 0 5 0;
#X connect 22 0 5 0;
#X connect 23 0 5 0;
#X connect 24 0 5 0;
#X connect 25 0 5 0;
#X connect 26 0 5 0;
#X connect 27 0 5 0;
#X connect 28 0 5 0;
#X connect 29 0 5 0;
#X connect 30 0 5 0;
#X connect 31 0 5 0;
#X connect 32 0 5 0;
#X connect 33 0 5 0;
#X connect 34 0 5 0;
#X connect 35 0 5 0;
#X connect 36 0 5 0;
#X connect 37 0 5 0;
#X connect 38 0 5 0;
#X connect 39 0 5 0;
#X connect 40 0 5 0;
#X connect 41 0 5 0;
#X connect 42 0 5 0;
#X connect 43 0 5 0;
#X connect 44 0 5 0;
#X connect 45 0 5 0;
#X connect 46 0 5 0;
#X connect 47 0 5 0;
#X connect 48 0 5 0;
#X connect 49 0 5 0;
#X connect 50 0 5 0;
#X connect 51 0 5 0;
#X connect 52 0 5 0;
#X connect 53 0 5 0;
#X connect 54 0 5 0;
#X connect 55 0 5 0;
#X connect 56 0 5 0;
#X connect 57 0 5 0;
#X connect 58 0 5 0;
#X connect 59 0 5 0;
#X connect 60 0 5 0;
#X connect 61 0 5 0;
#X connect 62 0 5 0;
#X connect 63 0 5 0;
#X connect 64 0 5 0;
#X connect 65 0 5 0;
#X connect 66 0 5 0;
#X connect 67 0 5 0;
#X connect 68 0 5 0;
#X connect 69 0 5 0;
#X connect 70 0 5 0;
#X connect 71 0 5 0;
#X connect 72 0 5 0;
#X connect 73 0 5 0;
#X connect 74 0 5 0;
#X connect 75 0 5 0;
#X connect 76 0 5 0;
#X connect 77 0 5 0;
#X connect 78 0 5 0;
#X connect 79 0 5 0;
#X connect 80 0 5 0;
#X connect 81 0 5 0;
#X connect 82 0 5 0;
#X connect 83 0 5 0;
#X connect 84 0 5 0;
#X connect 85 0 5 0;
#X connect 86 0 5 0;
#X connect 87 0 5 0;
#X connect 88 0 5 0;
#X connect 89 0 5 0;
#X connect 90 0 5 0;
#X connect 91 0 5 0;
#X connect 92 0 5 0;
#X connect 93 0 5 0;
#X connect 94 0 5 0;
#X connect 95 0 5 0;
