#N canvas 259 342 565 352 10;
#X declare -path utils;
#X declare -path utils;
#X declare -path utils;
#X declare -path utils;
#X declare -path utils;
#X declare -path utils;
#X declare -path utils;
#X declare -path utils;
#X declare -path utils;
#X declare -path utils;
#X declare -path utils;
#X declare -path utils;
#X declare -path utils;
#X declare -path utils;
#X declare -path utils;
#X declare -path utils;
#X declare -path utils;
#X declare -path utils;
#X declare -path utils;
#X declare -path utils;
#X declare -path utils;
#X declare -path utils;
#X declare -path utils;
#X declare -path utils;
#X declare -path utils;
#X declare -path utils;
#X declare -path utils;
#X declare -path utils;
#X declare -path utils;
#X declare -path utils;
#X declare -path utils;
#X declare -path utils;
#X declare -path utils;
#X declare -path utils;
#X declare -path utils;
#X declare -path utils;
#X declare -path utils;
#X declare -path utils;
#X declare -path utils;
#X declare -path utils;
#X declare -path utils;
#X declare -path utils;
#X declare -path utils;
#X declare -path utils;
#X declare -path utils;
#X declare -path utils;
#X declare -path utils;
#X declare -path utils;
#X declare -path utils;
#X declare -path utils;
#X declare -path utils;
#X declare -path utils;
#X declare -path utils;
#X declare -path utils;
#X declare -path utils;
#X declare -path utils;
#X declare -path utils;
#X declare -path utils;
#X declare -path utils;
#X declare -path utils;
#X declare -path utils;
#X declare -path utils;
#X declare -path utils;
#X declare -path utils;
#X declare -path utils;
#X declare -path utils;
#X declare -path utils;
#X declare -path utils;
#X declare -path utils;
#X declare -path utils;
#X declare -path utils;
#X declare -path utils;
#X declare -path utils;
#X declare -path utils;
#X declare -path utils;
#X declare -path utils;
#X declare -path utils;
#X declare -path utils;
#X declare -path utils;
#X declare -path utils;
#X declare -path utils;
#X declare -path utils;
#X declare -path utils;
#X declare -path utils;
#X declare -path utils;
#X declare -path utils;
#X declare -path utils;
#X declare -path utils;
#X obj 59 43 dac~;
#X obj 90 -41 rev3~ 100 92 3000 40;
#X obj 39 -9 +~;
#X obj 78 -7 +~;
#X obj 78 -143 r tinehit;
#X obj 78 -97 organ~;
#X obj 348 -72 mtof;
#X obj 268 -133 bng 15 250 50 0 empty empty empty 17 7 0 10 -262144
-1 -1;
#X obj 254 55 pack 0 0 0;
#X obj 251 95 print;
#X floatatom 391 -73 5 0 0 0 - - -;
#X obj 242 -89 f;
#X obj 281 -103 + 1;
#X obj 279 -74 mod 88;
#X floatatom 344 -103 5 0 0 0 - - -;
#X connect 1 0 2 1;
#X connect 1 1 3 1;
#X connect 2 0 0 0;
#X connect 3 0 0 1;
#X connect 4 0 5 0;
#X connect 5 0 2 0;
#X connect 5 0 3 0;
#X connect 5 0 1 0;
#X connect 5 0 1 1;
#X connect 6 0 8 1;
#X connect 7 0 11 0;
#X connect 7 0 14 0;
#X connect 8 0 9 0;
#X connect 8 0 5 0;
#X connect 10 0 8 2;
#X connect 11 0 12 0;
#X connect 11 0 8 0;
#X connect 12 0 13 0;
#X connect 13 0 11 1;
#X connect 14 0 6 0;
