#N canvas 622 94 509 419 10;
#X declare -path utils;
#X obj 170 3 inlet;
#X obj 174 354 outlet~;
#X obj 370 98 - 50;
#X obj 311 66 * 0.1;
#X obj 304 99 min 50;
#X text 415 96 attack/decay;
#X obj 40 8 declare -path utils;
#X obj 263 155 c_ead 20 1000;
#X obj 169 261 *~;
#X text 364 152 exponential env;
#X text 243 35 pitch (0-127) \, vel(0-127) \, dur (ms);
#X obj 160 37 unpack f f f;
#X obj 130 108 mtof;
#X obj 193 108 / 127;
#X obj 188 306 *~;
#X msg 293 6 60 90 3000;
#X obj 108 202 phasor~ 440;
#X obj 121 75 clip 0 127;
#X obj 196 75 clip 0 127;
#X obj 108 227 expr~ abs($v1-0.5)*4-1;
#X text 35 199 triangle;
#X connect 0 0 11 0;
#X connect 2 0 7 2;
#X connect 3 0 4 0;
#X connect 4 0 2 1;
#X connect 4 0 7 1;
#X connect 7 0 8 1;
#X connect 8 0 14 0;
#X connect 11 0 17 0;
#X connect 11 1 18 0;
#X connect 11 2 2 0;
#X connect 11 2 3 0;
#X connect 11 2 7 0;
#X connect 12 0 16 0;
#X connect 13 0 14 1;
#X connect 14 0 1 0;
#X connect 15 0 11 0;
#X connect 16 0 19 0;
#X connect 17 0 12 0;
#X connect 18 0 13 0;
#X connect 19 0 8 0;
