#N canvas 48 703 509 419 10;
#X declare -path utils;
#X obj 170 3 inlet;
#X obj 189 341 outlet~;
#X obj 148 213 osc~ 440;
#X obj 170 37 unpack f f;
#X obj 313 111 - 50;
#X obj 254 79 * 0.1;
#X obj 247 112 min 50;
#X text 243 35 frequency \, duration(ms);
#X text 358 109 attack/decay;
#X obj 40 8 declare -path utils;
#X obj 227 168 c_ead 20 1000;
#X obj 189 277 *~;
#X msg 293 6 440 3000;
#X text 347 169 exponential env;
#X text 310 83 comment;
#X connect 0 0 3 0;
#X connect 2 0 11 0;
#X connect 3 0 2 0;
#X connect 3 1 5 0;
#X connect 3 1 4 0;
#X connect 3 1 10 0;
#X connect 4 0 10 2;
#X connect 5 0 6 0;
#X connect 6 0 4 1;
#X connect 6 0 10 1;
#X connect 10 0 11 1;
#X connect 11 0 1 0;
#X connect 12 0 3 0;
