#N canvas 43 386 1066 564 10;
#X declare -path utils;
#X declare -path utils;
#X declare -path utils;
#X declare -path utils;
#X declare -path utils;
#X declare -path utils;
#X declare -path utils;
#X declare -path utils;
#X declare -path utils;
#X declare -path utils;
#X declare -path utils;
#X declare -path utils;
#X declare -path utils;
#X declare -path utils;
#X declare -path utils;
#X declare -path utils;
#X declare -path utils;
#X declare -path utils;
#X declare -path utils;
#X declare -path utils;
#X declare -path utils;
#X declare -path utils;
#X declare -path utils;
#X declare -path utils;
#X declare -path utils;
#X declare -path utils;
#X declare -path utils;
#X declare -path utils;
#X declare -path utils;
#X declare -path utils;
#X declare -path utils;
#X declare -path utils;
#X declare -path utils;
#X declare -path utils;
#X declare -path utils;
#X declare -path utils;
#X declare -path utils;
#X declare -path utils;
#X declare -path utils;
#X declare -path utils;
#X declare -path utils;
#X declare -path utils;
#X declare -path utils;
#X declare -path utils;
#X declare -path utils;
#X declare -path utils;
#X declare -path utils;
#X declare -path utils;
#N canvas 260 267 1585 257 subpatch 1;
#X obj 40 10 r whitney-in;
#X obj 40 140 *~ 0.25;
#X obj 40 160 throw~ aout;
#X obj 30 40 metro 90000;
#X obj 30 60 bng 15 250 50 0 empty empty empty 17 7 0 10 -262144 -1
-1;
#X msg 30 80 41 90 45000;
#X obj 30 100 voice_pdvt~;
#X obj 60 40 metro 60000;
#X obj 60 60 bng 15 250 50 0 empty empty empty 17 7 0 10 -262144 -1
-1;
#X msg 60 80 42 90 30000;
#X obj 60 100 voice_pdvt~;
#X obj 90 40 metro 45000;
#X obj 90 60 bng 15 250 50 0 empty empty empty 17 7 0 10 -262144 -1
-1;
#X msg 90 80 43 90 22500;
#X obj 90 100 voice_pdvt~;
#X obj 120 40 metro 36000;
#X obj 120 60 bng 15 250 50 0 empty empty empty 17 7 0 10 -262144 -1
-1;
#X msg 120 80 44 90 18000;
#X obj 120 100 voice_pdvt~;
#X obj 150 40 metro 30000;
#X obj 150 60 bng 15 250 50 0 empty empty empty 17 7 0 10 -262144 -1
-1;
#X msg 150 80 45 90 15000;
#X obj 150 100 voice_pdvt~;
#X obj 180 40 metro 25714.3;
#X obj 180 60 bng 15 250 50 0 empty empty empty 17 7 0 10 -262144 -1
-1;
#X msg 180 80 46 90 12857.1;
#X obj 180 100 voice_pdvt~;
#X obj 210 40 metro 22500;
#X obj 210 60 bng 15 250 50 0 empty empty empty 17 7 0 10 -262144 -1
-1;
#X msg 210 80 47 90 11250;
#X obj 210 100 voice_pdvt~;
#X obj 240 40 metro 20000;
#X obj 240 60 bng 15 250 50 0 empty empty empty 17 7 0 10 -262144 -1
-1;
#X msg 240 80 48 90 10000;
#X obj 240 100 voice_pdvt~;
#X obj 270 40 metro 18000;
#X obj 270 60 bng 15 250 50 0 empty empty empty 17 7 0 10 -262144 -1
-1;
#X msg 270 80 49 90 9000;
#X obj 270 100 voice_pdvt~;
#X obj 300 40 metro 16363.6;
#X obj 300 60 bng 15 250 50 0 empty empty empty 17 7 0 10 -262144 -1
-1;
#X msg 300 80 50 90 8181.82;
#X obj 300 100 voice_pdvt~;
#X obj 330 40 metro 15000;
#X obj 330 60 bng 15 250 50 0 empty empty empty 17 7 0 10 -262144 -1
-1;
#X msg 330 80 51 90 7500;
#X obj 330 100 voice_pdvt~;
#X obj 360 40 metro 13846.2;
#X obj 360 60 bng 15 250 50 0 empty empty empty 17 7 0 10 -262144 -1
-1;
#X msg 360 80 52 90 6923.08;
#X obj 360 100 voice_pdvt~;
#X obj 390 40 metro 12857.1;
#X obj 390 60 bng 15 250 50 0 empty empty empty 17 7 0 10 -262144 -1
-1;
#X msg 390 80 53 90 6428.57;
#X obj 390 100 voice_pdvt~;
#X obj 420 40 metro 12000;
#X obj 420 60 bng 15 250 50 0 empty empty empty 17 7 0 10 -262144 -1
-1;
#X msg 420 80 54 90 6000;
#X obj 420 100 voice_pdvt~;
#X obj 450 40 metro 11250;
#X obj 450 60 bng 15 250 50 0 empty empty empty 17 7 0 10 -262144 -1
-1;
#X msg 450 80 55 90 5625;
#X obj 450 100 voice_pdvt~;
#X obj 480 40 metro 10588.2;
#X obj 480 60 bng 15 250 50 0 empty empty empty 17 7 0 10 -262144 -1
-1;
#X msg 480 80 56 90 5294.12;
#X obj 480 100 voice_pdvt~;
#X obj 510 40 metro 10000;
#X obj 510 60 bng 15 250 50 0 empty empty empty 17 7 0 10 -262144 -1
-1;
#X msg 510 80 57 90 5000;
#X obj 510 100 voice_pdvt~;
#X obj 540 40 metro 9473.68;
#X obj 540 60 bng 15 250 50 0 empty empty empty 17 7 0 10 -262144 -1
-1;
#X msg 540 80 58 90 4736.84;
#X obj 540 100 voice_pdvt~;
#X obj 570 40 metro 9000;
#X obj 570 60 bng 15 250 50 0 empty empty empty 17 7 0 10 -262144 -1
-1;
#X msg 570 80 59 90 4500;
#X obj 570 100 voice_pdvt~;
#X obj 600 40 metro 8571.43;
#X obj 600 60 bng 15 250 50 0 empty empty empty 17 7 0 10 -262144 -1
-1;
#X msg 600 80 60 90 4285.71;
#X obj 600 100 voice_pdvt~;
#X obj 630 40 metro 8181.82;
#X obj 630 60 bng 15 250 50 0 empty empty empty 17 7 0 10 -262144 -1
-1;
#X msg 630 80 61 90 4090.91;
#X obj 630 100 voice_pdvt~;
#X obj 660 40 metro 7826.09;
#X obj 660 60 bng 15 250 50 0 empty empty empty 17 7 0 10 -262144 -1
-1;
#X msg 660 80 62 90 3913.04;
#X obj 660 100 voice_pdvt~;
#X obj 690 40 metro 7500;
#X obj 690 60 bng 15 250 50 0 empty empty empty 17 7 0 10 -262144 -1
-1;
#X msg 690 80 63 90 3750;
#X obj 690 100 voice_pdvt~;
#X obj 720 40 metro 7200;
#X obj 720 60 bng 15 250 50 0 empty empty empty 17 7 0 10 -262144 -1
-1;
#X msg 720 80 64 90 3600;
#X obj 720 100 voice_pdvt~;
#X obj 750 40 metro 6923.08;
#X obj 750 60 bng 15 250 50 0 empty empty empty 17 7 0 10 -262144 -1
-1;
#X msg 750 80 65 90 3461.54;
#X obj 750 100 voice_pdvt~;
#X obj 780 40 metro 6666.67;
#X obj 780 60 bng 15 250 50 0 empty empty empty 17 7 0 10 -262144 -1
-1;
#X msg 780 80 66 90 3333.33;
#X obj 780 100 voice_pdvt~;
#X obj 810 40 metro 6428.57;
#X obj 810 60 bng 15 250 50 0 empty empty empty 17 7 0 10 -262144 -1
-1;
#X msg 810 80 67 90 3214.29;
#X obj 810 100 voice_pdvt~;
#X obj 840 40 metro 6206.9;
#X obj 840 60 bng 15 250 50 0 empty empty empty 17 7 0 10 -262144 -1
-1;
#X msg 840 80 68 90 3103.45;
#X obj 840 100 voice_pdvt~;
#X obj 870 40 metro 6000;
#X obj 870 60 bng 15 250 50 0 empty empty empty 17 7 0 10 -262144 -1
-1;
#X msg 870 80 69 90 3000;
#X obj 870 100 voice_pdvt~;
#X obj 900 40 metro 5806.45;
#X obj 900 60 bng 15 250 50 0 empty empty empty 17 7 0 10 -262144 -1
-1;
#X msg 900 80 70 90 2903.23;
#X obj 900 100 voice_pdvt~;
#X obj 930 40 metro 5625;
#X obj 930 60 bng 15 250 50 0 empty empty empty 17 7 0 10 -262144 -1
-1;
#X msg 930 80 71 90 2812.5;
#X obj 930 100 voice_pdvt~;
#X obj 960 40 metro 5454.55;
#X obj 960 60 bng 15 250 50 0 empty empty empty 17 7 0 10 -262144 -1
-1;
#X msg 960 80 72 90 2727.27;
#X obj 960 100 voice_pdvt~;
#X obj 990 40 metro 5294.12;
#X obj 990 60 bng 15 250 50 0 empty empty empty 17 7 0 10 -262144 -1
-1;
#X msg 990 80 73 90 2647.06;
#X obj 990 100 voice_pdvt~;
#X obj 1020 40 metro 5142.86;
#X obj 1020 60 bng 15 250 50 0 empty empty empty 17 7 0 10 -262144
-1 -1;
#X msg 1020 80 74 90 2571.43;
#X obj 1020 100 voice_pdvt~;
#X obj 1050 40 metro 5000;
#X obj 1050 60 bng 15 250 50 0 empty empty empty 17 7 0 10 -262144
-1 -1;
#X msg 1050 80 75 90 2500;
#X obj 1050 100 voice_pdvt~;
#X obj 1080 40 metro 4864.86;
#X obj 1080 60 bng 15 250 50 0 empty empty empty 17 7 0 10 -262144
-1 -1;
#X msg 1080 80 76 90 2432.43;
#X obj 1080 100 voice_pdvt~;
#X obj 1110 40 metro 4736.84;
#X obj 1110 60 bng 15 250 50 0 empty empty empty 17 7 0 10 -262144
-1 -1;
#X msg 1110 80 77 90 2368.42;
#X obj 1110 100 voice_pdvt~;
#X obj 1140 40 metro 4615.38;
#X obj 1140 60 bng 15 250 50 0 empty empty empty 17 7 0 10 -262144
-1 -1;
#X msg 1140 80 78 90 2307.69;
#X obj 1140 100 voice_pdvt~;
#X obj 1170 40 metro 4500;
#X obj 1170 60 bng 15 250 50 0 empty empty empty 17 7 0 10 -262144
-1 -1;
#X msg 1170 80 79 90 2250;
#X obj 1170 100 voice_pdvt~;
#X obj 1200 40 metro 4390.24;
#X obj 1200 60 bng 15 250 50 0 empty empty empty 17 7 0 10 -262144
-1 -1;
#X msg 1200 80 80 90 2195.12;
#X obj 1200 100 voice_pdvt~;
#X obj 1230 40 metro 4285.71;
#X obj 1230 60 bng 15 250 50 0 empty empty empty 17 7 0 10 -262144
-1 -1;
#X msg 1230 80 81 90 2142.86;
#X obj 1230 100 voice_pdvt~;
#X obj 1260 40 metro 4186.05;
#X obj 1260 60 bng 15 250 50 0 empty empty empty 17 7 0 10 -262144
-1 -1;
#X msg 1260 80 82 90 2093.02;
#X obj 1260 100 voice_pdvt~;
#X obj 1290 40 metro 4090.91;
#X obj 1290 60 bng 15 250 50 0 empty empty empty 17 7 0 10 -262144
-1 -1;
#X msg 1290 80 83 90 2045.45;
#X obj 1290 100 voice_pdvt~;
#X obj 1320 40 metro 4000;
#X obj 1320 60 bng 15 250 50 0 empty empty empty 17 7 0 10 -262144
-1 -1;
#X msg 1320 80 84 90 2000;
#X obj 1320 100 voice_pdvt~;
#X obj 1350 40 metro 3913.04;
#X obj 1350 60 bng 15 250 50 0 empty empty empty 17 7 0 10 -262144
-1 -1;
#X msg 1350 80 85 90 1956.52;
#X obj 1350 100 voice_pdvt~;
#X obj 1380 40 metro 3829.79;
#X obj 1380 60 bng 15 250 50 0 empty empty empty 17 7 0 10 -262144
-1 -1;
#X msg 1380 80 86 90 1914.89;
#X obj 1380 100 voice_pdvt~;
#X obj 1410 40 metro 3750;
#X obj 1410 60 bng 15 250 50 0 empty empty empty 17 7 0 10 -262144
-1 -1;
#X msg 1410 80 87 90 1875;
#X obj 1410 100 voice_pdvt~;
#X obj 1440 40 metro 3673.47;
#X obj 1440 60 bng 15 250 50 0 empty empty empty 17 7 0 10 -262144
-1 -1;
#X msg 1440 80 88 90 1836.73;
#X obj 1440 100 voice_pdvt~;
#X connect 0 0 3 0;
#X connect 0 0 7 0;
#X connect 0 0 11 0;
#X connect 0 0 15 0;
#X connect 0 0 19 0;
#X connect 0 0 23 0;
#X connect 0 0 27 0;
#X connect 0 0 31 0;
#X connect 0 0 35 0;
#X connect 0 0 39 0;
#X connect 0 0 43 0;
#X connect 0 0 47 0;
#X connect 0 0 51 0;
#X connect 0 0 55 0;
#X connect 0 0 59 0;
#X connect 0 0 63 0;
#X connect 0 0 67 0;
#X connect 0 0 71 0;
#X connect 0 0 75 0;
#X connect 0 0 79 0;
#X connect 0 0 83 0;
#X connect 0 0 87 0;
#X connect 0 0 91 0;
#X connect 0 0 95 0;
#X connect 0 0 99 0;
#X connect 0 0 103 0;
#X connect 0 0 107 0;
#X connect 0 0 111 0;
#X connect 0 0 115 0;
#X connect 0 0 119 0;
#X connect 0 0 123 0;
#X connect 0 0 127 0;
#X connect 0 0 131 0;
#X connect 0 0 135 0;
#X connect 0 0 139 0;
#X connect 0 0 143 0;
#X connect 0 0 147 0;
#X connect 0 0 151 0;
#X connect 0 0 155 0;
#X connect 0 0 159 0;
#X connect 0 0 163 0;
#X connect 0 0 167 0;
#X connect 0 0 171 0;
#X connect 0 0 175 0;
#X connect 0 0 179 0;
#X connect 0 0 183 0;
#X connect 0 0 187 0;
#X connect 0 0 191 0;
#X connect 1 0 2 0;
#X connect 3 0 4 0;
#X connect 4 0 5 0;
#X connect 5 0 6 0;
#X connect 6 0 1 0;
#X connect 7 0 8 0;
#X connect 8 0 9 0;
#X connect 9 0 10 0;
#X connect 10 0 1 0;
#X connect 11 0 12 0;
#X connect 12 0 13 0;
#X connect 13 0 14 0;
#X connect 14 0 1 0;
#X connect 15 0 16 0;
#X connect 16 0 17 0;
#X connect 17 0 18 0;
#X connect 18 0 1 0;
#X connect 19 0 20 0;
#X connect 20 0 21 0;
#X connect 21 0 22 0;
#X connect 22 0 1 0;
#X connect 23 0 24 0;
#X connect 24 0 25 0;
#X connect 25 0 26 0;
#X connect 26 0 1 0;
#X connect 27 0 28 0;
#X connect 28 0 29 0;
#X connect 29 0 30 0;
#X connect 30 0 1 0;
#X connect 31 0 32 0;
#X connect 32 0 33 0;
#X connect 33 0 34 0;
#X connect 34 0 1 0;
#X connect 35 0 36 0;
#X connect 36 0 37 0;
#X connect 37 0 38 0;
#X connect 38 0 1 0;
#X connect 39 0 40 0;
#X connect 40 0 41 0;
#X connect 41 0 42 0;
#X connect 42 0 1 0;
#X connect 43 0 44 0;
#X connect 44 0 45 0;
#X connect 45 0 46 0;
#X connect 46 0 1 0;
#X connect 47 0 48 0;
#X connect 48 0 49 0;
#X connect 49 0 50 0;
#X connect 50 0 1 0;
#X connect 51 0 52 0;
#X connect 52 0 53 0;
#X connect 53 0 54 0;
#X connect 54 0 1 0;
#X connect 55 0 56 0;
#X connect 56 0 57 0;
#X connect 57 0 58 0;
#X connect 58 0 1 0;
#X connect 59 0 60 0;
#X connect 60 0 61 0;
#X connect 61 0 62 0;
#X connect 62 0 1 0;
#X connect 63 0 64 0;
#X connect 64 0 65 0;
#X connect 65 0 66 0;
#X connect 66 0 1 0;
#X connect 67 0 68 0;
#X connect 68 0 69 0;
#X connect 69 0 70 0;
#X connect 70 0 1 0;
#X connect 71 0 72 0;
#X connect 72 0 73 0;
#X connect 73 0 74 0;
#X connect 74 0 1 0;
#X connect 75 0 76 0;
#X connect 76 0 77 0;
#X connect 77 0 78 0;
#X connect 78 0 1 0;
#X connect 79 0 80 0;
#X connect 80 0 81 0;
#X connect 81 0 82 0;
#X connect 82 0 1 0;
#X connect 83 0 84 0;
#X connect 84 0 85 0;
#X connect 85 0 86 0;
#X connect 86 0 1 0;
#X connect 87 0 88 0;
#X connect 88 0 89 0;
#X connect 89 0 90 0;
#X connect 90 0 1 0;
#X connect 91 0 92 0;
#X connect 92 0 93 0;
#X connect 93 0 94 0;
#X connect 94 0 1 0;
#X connect 95 0 96 0;
#X connect 96 0 97 0;
#X connect 97 0 98 0;
#X connect 98 0 1 0;
#X connect 99 0 100 0;
#X connect 100 0 101 0;
#X connect 101 0 102 0;
#X connect 102 0 1 0;
#X connect 103 0 104 0;
#X connect 104 0 105 0;
#X connect 105 0 106 0;
#X connect 106 0 1 0;
#X connect 107 0 108 0;
#X connect 108 0 109 0;
#X connect 109 0 110 0;
#X connect 110 0 1 0;
#X connect 111 0 112 0;
#X connect 112 0 113 0;
#X connect 113 0 114 0;
#X connect 114 0 1 0;
#X connect 115 0 116 0;
#X connect 116 0 117 0;
#X connect 117 0 118 0;
#X connect 118 0 1 0;
#X connect 119 0 120 0;
#X connect 120 0 121 0;
#X connect 121 0 122 0;
#X connect 122 0 1 0;
#X connect 123 0 124 0;
#X connect 124 0 125 0;
#X connect 125 0 126 0;
#X connect 126 0 1 0;
#X connect 127 0 128 0;
#X connect 128 0 129 0;
#X connect 129 0 130 0;
#X connect 130 0 1 0;
#X connect 131 0 132 0;
#X connect 132 0 133 0;
#X connect 133 0 134 0;
#X connect 134 0 1 0;
#X connect 135 0 136 0;
#X connect 136 0 137 0;
#X connect 137 0 138 0;
#X connect 138 0 1 0;
#X connect 139 0 140 0;
#X connect 140 0 141 0;
#X connect 141 0 142 0;
#X connect 142 0 1 0;
#X connect 143 0 144 0;
#X connect 144 0 145 0;
#X connect 145 0 146 0;
#X connect 146 0 1 0;
#X connect 147 0 148 0;
#X connect 148 0 149 0;
#X connect 149 0 150 0;
#X connect 150 0 1 0;
#X connect 151 0 152 0;
#X connect 152 0 153 0;
#X connect 153 0 154 0;
#X connect 154 0 1 0;
#X connect 155 0 156 0;
#X connect 156 0 157 0;
#X connect 157 0 158 0;
#X connect 158 0 1 0;
#X connect 159 0 160 0;
#X connect 160 0 161 0;
#X connect 161 0 162 0;
#X connect 162 0 1 0;
#X connect 163 0 164 0;
#X connect 164 0 165 0;
#X connect 165 0 166 0;
#X connect 166 0 1 0;
#X connect 167 0 168 0;
#X connect 168 0 169 0;
#X connect 169 0 170 0;
#X connect 170 0 1 0;
#X connect 171 0 172 0;
#X connect 172 0 173 0;
#X connect 173 0 174 0;
#X connect 174 0 1 0;
#X connect 175 0 176 0;
#X connect 176 0 177 0;
#X connect 177 0 178 0;
#X connect 178 0 1 0;
#X connect 179 0 180 0;
#X connect 180 0 181 0;
#X connect 181 0 182 0;
#X connect 182 0 1 0;
#X connect 183 0 184 0;
#X connect 184 0 185 0;
#X connect 185 0 186 0;
#X connect 186 0 1 0;
#X connect 187 0 188 0;
#X connect 188 0 189 0;
#X connect 189 0 190 0;
#X connect 190 0 1 0;
#X connect 191 0 192 0;
#X connect 192 0 193 0;
#X connect 193 0 194 0;
#X connect 194 0 1 0;
#X restore 122 79 pd subpatch;
#X msg 358 -19 \; pd-subpatch clear;
#X obj 358 23 print done;
#X obj 534 111 until;
#X obj 570 140 f;
#X obj 618 140 + 1;
#X obj 536 51 t b b;
#X msg 532 -54 bang;
#X obj 647 261 /;
#X obj 634 235 + 1;
#X msg 669 233 180000;
#X obj 586 234 * 80;
#X obj 487 394 print patch;
#X msg 613 78 1;
#X obj 801 237 / 2;
#X obj 852 195 - 1;
#X obj 568 176 t b f f f f f;
#X obj 574 443 s pd-subpatch;
#X obj 849 272 + 1;
#X obj 570 22 s pd-subpatch;
#X obj 849 246 + 3;
#X obj 848 296 + 1;
#X obj 112 237 rev3~ 100 92 3000 40;
#X obj 72 277 +~;
#X obj 112 277 +~;
#X obj 92 317 dac~;
#X obj 112 -53 tgl 15 0 empty empty empty 17 7 0 10 -262144 -1 -1 0
1;
#X msg 536 78 48;
#X floatatom 499 231 5 0 0 0 - - -;
#X msg 500 202 30;
#X obj 573 347 pack f f f f f f f f f;
#X obj 849 319 + 1;
#X obj 849 219 * 4;
#X text 887 220 nbr units per tine;
#X text 888 247 offset#;
#X obj 415 81 print done;
#X obj 534 -31 t b b b;
#X msg 151 -46 bang;
#X obj 96 174 catch~ aout;
#X obj 112 -18 s whitney-in;
#X text 714 348 bang \, dx \, metro \, pitch \, dur \, u1# u2# u3#
u4#;
#X obj 744 236 + 40;
#X msg 575 386 obj \$2 40 metro \$3 \, obj \$2 60 bng 15 250 50 0 empty
empty empty 17 7 0 10 -262144 -1 -1 \, msg \$2 80 \$4 90 \$5 \, obj
\$2 100 voice_pdvt~ \, connect 0 0 \$6 0 \, connect \$6 0 \$7 0 \,
connect \$7 0 \$8 0 \, connect \$8 0 \$9 0 \, connect \$9 0 1 0;
#X msg 569 -6 clear \, obj 40 10 r whitney-in \, obj 40 140 *~ 0.25
\, obj 40 160 throw~ aout \, connect 1 0 2 0;
#X connect 1 0 2 0;
#X connect 1 0 2 0;
#X connect 1 0 2 0;
#X connect 3 0 4 0;
#X connect 4 0 5 0;
#X connect 4 0 16 0;
#X connect 5 0 4 1;
#X connect 6 0 27 0;
#X connect 6 1 13 0;
#X connect 7 0 36 0;
#X connect 8 0 14 0;
#X connect 8 0 30 2;
#X connect 9 0 8 1;
#X connect 10 0 8 0;
#X connect 11 0 30 1;
#X connect 13 0 4 1;
#X connect 14 0 30 4;
#X connect 15 0 32 0;
#X connect 16 0 30 0;
#X connect 16 1 11 0;
#X connect 16 2 9 0;
#X connect 16 2 10 0;
#X connect 16 3 41 0;
#X connect 16 5 15 0;
#X connect 18 0 21 0;
#X connect 18 0 30 6;
#X connect 20 0 18 0;
#X connect 20 0 30 5;
#X connect 21 0 30 7;
#X connect 21 0 31 0;
#X connect 22 0 23 1;
#X connect 22 1 24 1;
#X connect 23 0 25 0;
#X connect 24 0 25 1;
#X connect 26 0 39 0;
#X connect 27 0 3 0;
#X connect 28 0 11 1;
#X connect 29 0 28 0;
#X connect 30 0 42 0;
#X connect 30 0 12 0;
#X connect 31 0 30 8;
#X connect 32 0 20 0;
#X connect 36 0 35 0;
#X connect 36 1 6 0;
#X connect 36 2 43 0;
#X connect 38 0 23 0;
#X connect 38 0 24 0;
#X connect 38 0 22 0;
#X connect 38 0 22 1;
#X connect 41 0 30 3;
#X connect 42 0 17 0;
#X connect 43 0 19 0;
