#N canvas 500 92 909 852 10;
#X text 30 18 Created with makeWhitneySend.pl -tines 60 -len 1;
#X obj 60 60 tgl 15 0 empty empty empty 17 7 0 10 -262144 -1 -1 0 1
;
#X obj 410 401 tgl 15 0 empty empty empty 17 7 0 10 -262144 -1 -1 0
1;
#X obj 410 410 +~;
#X obj 738 20 *~ 0.0166667;
#X obj 738 50 rev3~ 100 92 3000 40;
#X obj 738 90 +~;
#X obj 738 90 +~;
#X obj 738 110 dac~;
#X obj 575 410 metro 60000;
#X obj 710 410 bng 15 250 50 0 empty empty empty 17 7 0 10 -262144
-1 -1;
#X msg 730 410 20 30000;
#X obj 789 410 voice~;
#X obj 573 430 metro 30000;
#X obj 708 441 bng 15 250 50 0 empty empty empty 17 7 0 10 -262144
-1 -1;
#X msg 728 446 40 15000;
#X obj 786 451 voice~;
#X obj 570 451 metro 20000;
#X obj 703 472 bng 15 250 50 0 empty empty empty 17 7 0 10 -262144
-1 -1;
#X msg 722 482 60 10000;
#X obj 780 493 voice~;
#X obj 565 471 metro 15000;
#X obj 695 502 bng 15 250 50 0 empty empty empty 17 7 0 10 -262144
-1 -1;
#X msg 712 518 80 7500;
#X obj 769 533 voice~;
#X obj 557 491 metro 12000;
#X obj 684 532 bng 15 250 50 0 empty empty empty 17 7 0 10 -262144
-1 -1;
#X msg 699 552 100 6000;
#X obj 754 572 voice~;
#X obj 548 509 metro 10000;
#X obj 669 559 bng 15 250 50 0 empty empty empty 17 7 0 10 -262144
-1 -1;
#X msg 683 584 120 5000;
#X obj 735 609 voice~;
#X obj 536 527 metro 8571.43;
#X obj 652 586 bng 15 250 50 0 empty empty empty 17 7 0 10 -262144
-1 -1;
#X msg 663 615 140 4285;
#X obj 712 645 voice~;
#X obj 523 543 metro 7500;
#X obj 632 610 bng 15 250 50 0 empty empty empty 17 7 0 10 -262144
-1 -1;
#X msg 640 644 160 3750;
#X obj 686 677 voice~;
#X obj 508 558 metro 6666.67;
#X obj 610 632 bng 15 250 50 0 empty empty empty 17 7 0 10 -262144
-1 -1;
#X msg 614 670 180 3333;
#X obj 656 707 voice~;
#X obj 492 571 metro 6000;
#X obj 586 652 bng 15 250 50 0 empty empty empty 17 7 0 10 -262144
-1 -1;
#X msg 585 693 200 3000;
#X obj 624 733 voice~;
#X obj 475 583 metro 5454.55;
#X obj 560 669 bng 15 250 50 0 empty empty empty 17 7 0 10 -262144
-1 -1;
#X msg 555 713 220 2727;
#X obj 589 756 voice~;
#X obj 456 592 metro 5000;
#X obj 532 684 bng 15 250 50 0 empty empty empty 17 7 0 10 -262144
-1 -1;
#X msg 522 729 240 2500;
#X obj 551 775 voice~;
#X obj 436 600 metro 4615.38;
#X obj 502 695 bng 15 250 50 0 empty empty empty 17 7 0 10 -262144
-1 -1;
#X msg 488 742 260 2307;
#X obj 512 790 voice~;
#X obj 416 605 metro 4285.71;
#X obj 472 703 bng 15 250 50 0 empty empty empty 17 7 0 10 -262144
-1 -1;
#X msg 452 752 280 2142;
#X obj 472 801 voice~;
#X obj 395 608 metro 4000;
#X obj 441 708 bng 15 250 50 0 empty empty empty 17 7 0 10 -262144
-1 -1;
#X msg 416 758 300 2000;
#X obj 430 807 voice~;
#X obj 375 609 metro 3750;
#X obj 410 709 bng 15 250 50 0 empty empty empty 17 7 0 10 -262144
-1 -1;
#X msg 380 759 320 1875;
#X obj 389 809 voice~;
#X obj 354 608 metro 3529.41;
#X obj 378 708 bng 15 250 50 0 empty empty empty 17 7 0 10 -262144
-1 -1;
#X msg 343 758 340 1764;
#X obj 347 807 voice~;
#X obj 333 605 metro 3333.33;
#X obj 347 703 bng 15 250 50 0 empty empty empty 17 7 0 10 -262144
-1 -1;
#X msg 307 752 360 1666;
#X obj 305 801 voice~;
#X obj 313 600 metro 3157.89;
#X obj 317 695 bng 15 250 50 0 empty empty empty 17 7 0 10 -262144
-1 -1;
#X msg 271 742 380 1578;
#X obj 265 790 voice~;
#X obj 293 592 metro 3000;
#X obj 287 684 bng 15 250 50 0 empty empty empty 17 7 0 10 -262144
-1 -1;
#X msg 237 729 400 1500;
#X obj 226 775 voice~;
#X obj 275 583 metro 2857.14;
#X obj 260 669 bng 15 250 50 0 empty empty empty 17 7 0 10 -262144
-1 -1;
#X msg 205 713 420 1428;
#X obj 189 756 voice~;
#X obj 257 571 metro 2727.27;
#X obj 233 652 bng 15 250 50 0 empty empty empty 17 7 0 10 -262144
-1 -1;
#X msg 174 693 440 1363;
#X obj 153 733 voice~;
#X obj 241 558 metro 2608.7;
#X obj 209 632 bng 15 250 50 0 empty empty empty 17 7 0 10 -262144
-1 -1;
#X msg 145 670 460 1304;
#X obj 121 707 voice~;
#X obj 226 543 metro 2500;
#X obj 187 610 bng 15 250 50 0 empty empty empty 17 7 0 10 -262144
-1 -1;
#X msg 119 644 480 1250;
#X obj 91 677 voice~;
#X obj 213 527 metro 2400;
#X obj 167 586 bng 15 250 50 0 empty empty empty 17 7 0 10 -262144
-1 -1;
#X msg 96 615 500 1200;
#X obj 65 645 voice~;
#X obj 201 510 metro 2307.69;
#X obj 150 560 bng 15 250 50 0 empty empty empty 17 7 0 10 -262144
-1 -1;
#X msg 76 585 520 1153;
#X obj 42 610 voice~;
#X obj 192 491 metro 2222.22;
#X obj 135 532 bng 15 250 50 0 empty empty empty 17 7 0 10 -262144
-1 -1;
#X msg 60 552 540 1111;
#X obj 23 572 voice~;
#X obj 184 471 metro 2142.86;
#X obj 124 502 bng 15 250 50 0 empty empty empty 17 7 0 10 -262144
-1 -1;
#X msg 47 518 560 1071;
#X obj 9 533 voice~;
#X obj 179 451 metro 2068.97;
#X obj 116 472 bng 15 250 50 0 empty empty empty 17 7 0 10 -262144
-1 -1;
#X msg 37 482 580 1034;
#X obj -2 493 voice~;
#X obj 176 430 metro 2000;
#X obj 111 441 bng 15 250 50 0 empty empty empty 17 7 0 10 -262144
-1 -1;
#X msg 31 446 600 1000;
#X obj -8 451 voice~;
#X obj 175 410 metro 1935.48;
#X obj 110 410 bng 15 250 50 0 empty empty empty 17 7 0 10 -262144
-1 -1;
#X msg 30 410 620 967;
#X obj -10 410 voice~;
#X obj 176 389 metro 1875;
#X obj 111 378 bng 15 250 50 0 empty empty empty 17 7 0 10 -262144
-1 -1;
#X msg 31 373 640 937;
#X obj -8 368 voice~;
#X obj 179 368 metro 1818.18;
#X obj 116 347 bng 15 250 50 0 empty empty empty 17 7 0 10 -262144
-1 -1;
#X msg 37 337 660 909;
#X obj -2 326 voice~;
#X obj 184 348 metro 1764.71;
#X obj 124 317 bng 15 250 50 0 empty empty empty 17 7 0 10 -262144
-1 -1;
#X msg 47 301 680 882;
#X obj 9 286 voice~;
#X obj 192 328 metro 1714.29;
#X obj 135 287 bng 15 250 50 0 empty empty empty 17 7 0 10 -262144
-1 -1;
#X msg 60 267 700 857;
#X obj 23 247 voice~;
#X obj 201 310 metro 1666.67;
#X obj 150 260 bng 15 250 50 0 empty empty empty 17 7 0 10 -262144
-1 -1;
#X msg 76 235 720 833;
#X obj 42 210 voice~;
#X obj 213 292 metro 1621.62;
#X obj 167 233 bng 15 250 50 0 empty empty empty 17 7 0 10 -262144
-1 -1;
#X msg 96 204 740 810;
#X obj 65 174 voice~;
#X obj 226 276 metro 1578.95;
#X obj 187 209 bng 15 250 50 0 empty empty empty 17 7 0 10 -262144
-1 -1;
#X msg 119 175 760 789;
#X obj 91 142 voice~;
#X obj 241 261 metro 1538.46;
#X obj 209 187 bng 15 250 50 0 empty empty empty 17 7 0 10 -262144
-1 -1;
#X msg 145 149 780 769;
#X obj 121 112 voice~;
#X obj 257 248 metro 1500;
#X obj 233 167 bng 15 250 50 0 empty empty empty 17 7 0 10 -262144
-1 -1;
#X msg 174 126 800 750;
#X obj 153 86 voice~;
#X obj 274 236 metro 1463.41;
#X obj 259 150 bng 15 250 50 0 empty empty empty 17 7 0 10 -262144
-1 -1;
#X msg 204 106 820 731;
#X obj 188 63 voice~;
#X obj 293 227 metro 1428.57;
#X obj 287 135 bng 15 250 50 0 empty empty empty 17 7 0 10 -262144
-1 -1;
#X msg 237 90 840 714;
#X obj 226 44 voice~;
#X obj 313 219 metro 1395.35;
#X obj 317 124 bng 15 250 50 0 empty empty empty 17 7 0 10 -262144
-1 -1;
#X msg 271 77 860 697;
#X obj 265 29 voice~;
#X obj 333 214 metro 1363.64;
#X obj 347 116 bng 15 250 50 0 empty empty empty 17 7 0 10 -262144
-1 -1;
#X msg 307 67 880 681;
#X obj 305 18 voice~;
#X obj 354 211 metro 1333.33;
#X obj 378 111 bng 15 250 50 0 empty empty empty 17 7 0 10 -262144
-1 -1;
#X msg 343 61 900 666;
#X obj 347 12 voice~;
#X obj 374 210 metro 1304.35;
#X obj 409 110 bng 15 250 50 0 empty empty empty 17 7 0 10 -262144
-1 -1;
#X msg 379 60 920 652;
#X obj 388 10 voice~;
#X obj 395 211 metro 1276.6;
#X obj 441 111 bng 15 250 50 0 empty empty empty 17 7 0 10 -262144
-1 -1;
#X msg 416 61 940 638;
#X obj 430 12 voice~;
#X obj 416 214 metro 1250;
#X obj 472 116 bng 15 250 50 0 empty empty empty 17 7 0 10 -262144
-1 -1;
#X msg 452 67 960 625;
#X obj 472 18 voice~;
#X obj 436 219 metro 1224.49;
#X obj 502 124 bng 15 250 50 0 empty empty empty 17 7 0 10 -262144
-1 -1;
#X msg 488 77 980 612;
#X obj 512 29 voice~;
#X obj 456 227 metro 1200;
#X obj 532 135 bng 15 250 50 0 empty empty empty 17 7 0 10 -262144
-1 -1;
#X msg 522 90 1000 600;
#X obj 551 44 voice~;
#X obj 474 236 metro 1176.47;
#X obj 559 150 bng 15 250 50 0 empty empty empty 17 7 0 10 -262144
-1 -1;
#X msg 554 106 1020 588;
#X obj 588 63 voice~;
#X obj 492 248 metro 1153.85;
#X obj 586 167 bng 15 250 50 0 empty empty empty 17 7 0 10 -262144
-1 -1;
#X msg 585 126 1040 576;
#X obj 624 86 voice~;
#X obj 508 261 metro 1132.08;
#X obj 610 187 bng 15 250 50 0 empty empty empty 17 7 0 10 -262144
-1 -1;
#X msg 614 149 1060 566;
#X obj 656 112 voice~;
#X obj 523 276 metro 1111.11;
#X obj 632 209 bng 15 250 50 0 empty empty empty 17 7 0 10 -262144
-1 -1;
#X msg 640 175 1080 555;
#X obj 686 142 voice~;
#X obj 536 292 metro 1090.91;
#X obj 652 233 bng 15 250 50 0 empty empty empty 17 7 0 10 -262144
-1 -1;
#X msg 663 204 1100 545;
#X obj 712 174 voice~;
#X obj 548 309 metro 1071.43;
#X obj 669 259 bng 15 250 50 0 empty empty empty 17 7 0 10 -262144
-1 -1;
#X msg 683 234 1120 535;
#X obj 735 209 voice~;
#X obj 557 328 metro 1052.63;
#X obj 684 287 bng 15 250 50 0 empty empty empty 17 7 0 10 -262144
-1 -1;
#X msg 699 267 1140 526;
#X obj 754 247 voice~;
#X obj 565 348 metro 1034.48;
#X obj 695 317 bng 15 250 50 0 empty empty empty 17 7 0 10 -262144
-1 -1;
#X msg 712 301 1160 517;
#X obj 769 286 voice~;
#X obj 570 368 metro 1016.95;
#X obj 703 347 bng 15 250 50 0 empty empty empty 17 7 0 10 -262144
-1 -1;
#X msg 722 337 1180 508;
#X obj 780 326 voice~;
#X obj 573 389 metro 1000;
#X obj 708 378 bng 15 250 50 0 empty empty empty 17 7 0 10 -262144
-1 -1;
#X msg 728 373 1200 500;
#X obj 786 368 voice~;
#X connect 1 0 2 0;
#X connect 2 0 9 0;
#X connect 2 0 13 0;
#X connect 2 0 17 0;
#X connect 2 0 21 0;
#X connect 2 0 25 0;
#X connect 2 0 29 0;
#X connect 2 0 33 0;
#X connect 2 0 37 0;
#X connect 2 0 41 0;
#X connect 2 0 45 0;
#X connect 2 0 49 0;
#X connect 2 0 53 0;
#X connect 2 0 57 0;
#X connect 2 0 61 0;
#X connect 2 0 65 0;
#X connect 2 0 69 0;
#X connect 2 0 73 0;
#X connect 2 0 77 0;
#X connect 2 0 81 0;
#X connect 2 0 85 0;
#X connect 2 0 89 0;
#X connect 2 0 93 0;
#X connect 2 0 97 0;
#X connect 2 0 101 0;
#X connect 2 0 105 0;
#X connect 2 0 109 0;
#X connect 2 0 113 0;
#X connect 2 0 117 0;
#X connect 2 0 121 0;
#X connect 2 0 125 0;
#X connect 2 0 129 0;
#X connect 2 0 133 0;
#X connect 2 0 137 0;
#X connect 2 0 141 0;
#X connect 2 0 145 0;
#X connect 2 0 149 0;
#X connect 2 0 153 0;
#X connect 2 0 157 0;
#X connect 2 0 161 0;
#X connect 2 0 165 0;
#X connect 2 0 169 0;
#X connect 2 0 173 0;
#X connect 2 0 177 0;
#X connect 2 0 181 0;
#X connect 2 0 185 0;
#X connect 2 0 189 0;
#X connect 2 0 193 0;
#X connect 2 0 197 0;
#X connect 2 0 201 0;
#X connect 2 0 205 0;
#X connect 2 0 209 0;
#X connect 2 0 213 0;
#X connect 2 0 217 0;
#X connect 2 0 221 0;
#X connect 2 0 225 0;
#X connect 2 0 229 0;
#X connect 2 0 233 0;
#X connect 2 0 237 0;
#X connect 2 0 241 0;
#X connect 2 0 245 0;
#X connect 3 0 4 0;
#X connect 4 0 6 0;
#X connect 4 0 7 0;
#X connect 4 0 5 0;
#X connect 4 0 5 1;
#X connect 5 0 6 1;
#X connect 5 1 7 1;
#X connect 6 0 8 0;
#X connect 7 0 8 1;
#X connect 9 0 10 0;
#X connect 10 0 11 0;
#X connect 11 0 12 0;
#X connect 12 0 3 0;
#X connect 13 0 14 0;
#X connect 14 0 15 0;
#X connect 15 0 16 0;
#X connect 16 0 3 0;
#X connect 17 0 18 0;
#X connect 18 0 19 0;
#X connect 19 0 20 0;
#X connect 20 0 3 0;
#X connect 21 0 22 0;
#X connect 22 0 23 0;
#X connect 23 0 24 0;
#X connect 24 0 3 0;
#X connect 25 0 26 0;
#X connect 26 0 27 0;
#X connect 27 0 28 0;
#X connect 28 0 3 0;
#X connect 29 0 30 0;
#X connect 30 0 31 0;
#X connect 31 0 32 0;
#X connect 32 0 3 0;
#X connect 33 0 34 0;
#X connect 34 0 35 0;
#X connect 35 0 36 0;
#X connect 36 0 3 0;
#X connect 37 0 38 0;
#X connect 38 0 39 0;
#X connect 39 0 40 0;
#X connect 40 0 3 0;
#X connect 41 0 42 0;
#X connect 42 0 43 0;
#X connect 43 0 44 0;
#X connect 44 0 3 0;
#X connect 45 0 46 0;
#X connect 46 0 47 0;
#X connect 47 0 48 0;
#X connect 48 0 3 0;
#X connect 49 0 50 0;
#X connect 50 0 51 0;
#X connect 51 0 52 0;
#X connect 52 0 3 0;
#X connect 53 0 54 0;
#X connect 54 0 55 0;
#X connect 55 0 56 0;
#X connect 56 0 3 0;
#X connect 57 0 58 0;
#X connect 58 0 59 0;
#X connect 59 0 60 0;
#X connect 60 0 3 0;
#X connect 61 0 62 0;
#X connect 62 0 63 0;
#X connect 63 0 64 0;
#X connect 64 0 3 0;
#X connect 65 0 66 0;
#X connect 66 0 67 0;
#X connect 67 0 68 0;
#X connect 68 0 3 0;
#X connect 69 0 70 0;
#X connect 70 0 71 0;
#X connect 71 0 72 0;
#X connect 72 0 3 0;
#X connect 73 0 74 0;
#X connect 74 0 75 0;
#X connect 75 0 76 0;
#X connect 76 0 3 0;
#X connect 77 0 78 0;
#X connect 78 0 79 0;
#X connect 79 0 80 0;
#X connect 80 0 3 0;
#X connect 81 0 82 0;
#X connect 82 0 83 0;
#X connect 83 0 84 0;
#X connect 84 0 3 0;
#X connect 85 0 86 0;
#X connect 86 0 87 0;
#X connect 87 0 88 0;
#X connect 88 0 3 0;
#X connect 89 0 90 0;
#X connect 90 0 91 0;
#X connect 91 0 92 0;
#X connect 92 0 3 0;
#X connect 93 0 94 0;
#X connect 94 0 95 0;
#X connect 95 0 96 0;
#X connect 96 0 3 0;
#X connect 97 0 98 0;
#X connect 98 0 99 0;
#X connect 99 0 100 0;
#X connect 100 0 3 0;
#X connect 101 0 102 0;
#X connect 102 0 103 0;
#X connect 103 0 104 0;
#X connect 104 0 3 0;
#X connect 105 0 106 0;
#X connect 106 0 107 0;
#X connect 107 0 108 0;
#X connect 108 0 3 0;
#X connect 109 0 110 0;
#X connect 110 0 111 0;
#X connect 111 0 112 0;
#X connect 112 0 3 0;
#X connect 113 0 114 0;
#X connect 114 0 115 0;
#X connect 115 0 116 0;
#X connect 116 0 3 0;
#X connect 117 0 118 0;
#X connect 118 0 119 0;
#X connect 119 0 120 0;
#X connect 120 0 3 0;
#X connect 121 0 122 0;
#X connect 122 0 123 0;
#X connect 123 0 124 0;
#X connect 124 0 3 0;
#X connect 125 0 126 0;
#X connect 126 0 127 0;
#X connect 127 0 128 0;
#X connect 128 0 3 0;
#X connect 129 0 130 0;
#X connect 130 0 131 0;
#X connect 131 0 132 0;
#X connect 132 0 3 0;
#X connect 133 0 134 0;
#X connect 134 0 135 0;
#X connect 135 0 136 0;
#X connect 136 0 3 0;
#X connect 137 0 138 0;
#X connect 138 0 139 0;
#X connect 139 0 140 0;
#X connect 140 0 3 0;
#X connect 141 0 142 0;
#X connect 142 0 143 0;
#X connect 143 0 144 0;
#X connect 144 0 3 0;
#X connect 145 0 146 0;
#X connect 146 0 147 0;
#X connect 147 0 148 0;
#X connect 148 0 3 0;
#X connect 149 0 150 0;
#X connect 150 0 151 0;
#X connect 151 0 152 0;
#X connect 152 0 3 0;
#X connect 153 0 154 0;
#X connect 154 0 155 0;
#X connect 155 0 156 0;
#X connect 156 0 3 0;
#X connect 157 0 158 0;
#X connect 158 0 159 0;
#X connect 159 0 160 0;
#X connect 160 0 3 0;
#X connect 161 0 162 0;
#X connect 162 0 163 0;
#X connect 163 0 164 0;
#X connect 164 0 3 0;
#X connect 165 0 166 0;
#X connect 166 0 167 0;
#X connect 167 0 168 0;
#X connect 168 0 3 0;
#X connect 169 0 170 0;
#X connect 170 0 171 0;
#X connect 171 0 172 0;
#X connect 172 0 3 0;
#X connect 173 0 174 0;
#X connect 174 0 175 0;
#X connect 175 0 176 0;
#X connect 176 0 3 0;
#X connect 177 0 178 0;
#X connect 178 0 179 0;
#X connect 179 0 180 0;
#X connect 180 0 3 0;
#X connect 181 0 182 0;
#X connect 182 0 183 0;
#X connect 183 0 184 0;
#X connect 184 0 3 0;
#X connect 185 0 186 0;
#X connect 186 0 187 0;
#X connect 187 0 188 0;
#X connect 188 0 3 0;
#X connect 189 0 190 0;
#X connect 190 0 191 0;
#X connect 191 0 192 0;
#X connect 192 0 3 0;
#X connect 193 0 194 0;
#X connect 194 0 195 0;
#X connect 195 0 196 0;
#X connect 196 0 3 0;
#X connect 197 0 198 0;
#X connect 198 0 199 0;
#X connect 199 0 200 0;
#X connect 200 0 3 0;
#X connect 201 0 202 0;
#X connect 202 0 203 0;
#X connect 203 0 204 0;
#X connect 204 0 3 0;
#X connect 205 0 206 0;
#X connect 206 0 207 0;
#X connect 207 0 208 0;
#X connect 208 0 3 0;
#X connect 209 0 210 0;
#X connect 210 0 211 0;
#X connect 211 0 212 0;
#X connect 212 0 3 0;
#X connect 213 0 214 0;
#X connect 214 0 215 0;
#X connect 215 0 216 0;
#X connect 216 0 3 0;
#X connect 217 0 218 0;
#X connect 218 0 219 0;
#X connect 219 0 220 0;
#X connect 220 0 3 0;
#X connect 221 0 222 0;
#X connect 222 0 223 0;
#X connect 223 0 224 0;
#X connect 224 0 3 0;
#X connect 225 0 226 0;
#X connect 226 0 227 0;
#X connect 227 0 228 0;
#X connect 228 0 3 0;
#X connect 229 0 230 0;
#X connect 230 0 231 0;
#X connect 231 0 232 0;
#X connect 232 0 3 0;
#X connect 233 0 234 0;
#X connect 234 0 235 0;
#X connect 235 0 236 0;
#X connect 236 0 3 0;
#X connect 237 0 238 0;
#X connect 238 0 239 0;
#X connect 239 0 240 0;
#X connect 240 0 3 0;
#X connect 241 0 242 0;
#X connect 242 0 243 0;
#X connect 243 0 244 0;
#X connect 244 0 3 0;
#X connect 245 0 246 0;
#X connect 246 0 247 0;
#X connect 247 0 248 0;
#X connect 248 0 3 0;
