#N canvas 100 100 1536 460 10;
#X text 20 8 Created with makeWhitneyPD.pl -chromatic -rev -len .5 -o whitneyChromaticRevFast.pd;
#X obj 768 40 tgl 15 0 empty empty empty 17 7 0 10 -262144 -1 -1 0 1;
#X obj 768 280 *~ 0.0208333333333333;
#X obj 788 340 rev3~ 100 92 3000 40;
#X obj 748 380 +~;
#X obj 788 380 +~;
#X obj 768 420 dac~;
#X obj 48 70 metro 30000;
#X obj 48 120 bng 15 250 50 0 empty empty empty 17 7 0 10 -262144 -1 -1;
#X msg 48 150 2489 15000;
#X obj 48 190 voice~;
#X obj 78 91 metro 15000;
#X obj 78 121 bng 15 250 50 0 empty empty empty 17 7 0 10 -262144 -1 -1;
#X msg 78 171 2349 7500;
#X obj 78 211 voice~;
#X obj 108 73 metro 10000;
#X obj 108 123 bng 15 250 50 0 empty empty empty 17 7 0 10 -262144 -1 -1;
#X msg 108 153 2217 5000;
#X obj 108 193 voice~;
#X obj 138 95 metro 7500;
#X obj 138 125 bng 15 250 50 0 empty empty empty 17 7 0 10 -262144 -1 -1;
#X msg 138 175 2093 3750;
#X obj 138 215 voice~;
#X obj 168 77 metro 6000;
#X obj 168 127 bng 15 250 50 0 empty empty empty 17 7 0 10 -262144 -1 -1;
#X msg 168 157 1975 3000;
#X obj 168 197 voice~;
#X obj 198 99 metro 5000;
#X obj 198 129 bng 15 250 50 0 empty empty empty 17 7 0 10 -262144 -1 -1;
#X msg 198 179 1864 2500;
#X obj 198 219 voice~;
#X obj 228 81 metro 4285;
#X obj 228 131 bng 15 250 50 0 empty empty empty 17 7 0 10 -262144 -1 -1;
#X msg 228 161 1760 2142;
#X obj 228 201 voice~;
#X obj 258 103 metro 3750;
#X obj 258 133 bng 15 250 50 0 empty empty empty 17 7 0 10 -262144 -1 -1;
#X msg 258 183 1661 1875;
#X obj 258 223 voice~;
#X obj 288 84 metro 3333;
#X obj 288 134 bng 15 250 50 0 empty empty empty 17 7 0 10 -262144 -1 -1;
#X msg 288 164 1567 1666;
#X obj 288 204 voice~;
#X obj 318 106 metro 3000;
#X obj 318 136 bng 15 250 50 0 empty empty empty 17 7 0 10 -262144 -1 -1;
#X msg 318 186 1479 1500;
#X obj 318 226 voice~;
#X obj 348 88 metro 2727;
#X obj 348 138 bng 15 250 50 0 empty empty empty 17 7 0 10 -262144 -1 -1;
#X msg 348 168 1396 1363;
#X obj 348 208 voice~;
#X obj 378 109 metro 2500;
#X obj 378 139 bng 15 250 50 0 empty empty empty 17 7 0 10 -262144 -1 -1;
#X msg 378 189 1318 1250;
#X obj 378 229 voice~;
#X obj 408 91 metro 2307;
#X obj 408 141 bng 15 250 50 0 empty empty empty 17 7 0 10 -262144 -1 -1;
#X msg 408 171 1244 1153;
#X obj 408 211 voice~;
#X obj 438 112 metro 2142;
#X obj 438 142 bng 15 250 50 0 empty empty empty 17 7 0 10 -262144 -1 -1;
#X msg 438 192 1174 1071;
#X obj 438 232 voice~;
#X obj 468 93 metro 2000;
#X obj 468 143 bng 15 250 50 0 empty empty empty 17 7 0 10 -262144 -1 -1;
#X msg 468 173 1108 1000;
#X obj 468 213 voice~;
#X obj 498 114 metro 1875;
#X obj 498 144 bng 15 250 50 0 empty empty empty 17 7 0 10 -262144 -1 -1;
#X msg 498 194 1046 937;
#X obj 498 234 voice~;
#X obj 528 95 metro 1764;
#X obj 528 145 bng 15 250 50 0 empty empty empty 17 7 0 10 -262144 -1 -1;
#X msg 528 175 987 882;
#X obj 528 215 voice~;
#X obj 558 116 metro 1666;
#X obj 558 146 bng 15 250 50 0 empty empty empty 17 7 0 10 -262144 -1 -1;
#X msg 558 196 932 833;
#X obj 558 236 voice~;
#X obj 588 97 metro 1578;
#X obj 588 147 bng 15 250 50 0 empty empty empty 17 7 0 10 -262144 -1 -1;
#X msg 588 177 880 789;
#X obj 588 217 voice~;
#X obj 618 118 metro 1500;
#X obj 618 148 bng 15 250 50 0 empty empty empty 17 7 0 10 -262144 -1 -1;
#X msg 618 198 830 750;
#X obj 618 238 voice~;
#X obj 648 98 metro 1428;
#X obj 648 148 bng 15 250 50 0 empty empty empty 17 7 0 10 -262144 -1 -1;
#X msg 648 178 783 714;
#X obj 648 218 voice~;
#X obj 678 119 metro 1363;
#X obj 678 149 bng 15 250 50 0 empty empty empty 17 7 0 10 -262144 -1 -1;
#X msg 678 199 739 681;
#X obj 678 239 voice~;
#X obj 708 99 metro 1304;
#X obj 708 149 bng 15 250 50 0 empty empty empty 17 7 0 10 -262144 -1 -1;
#X msg 708 179 698 652;
#X obj 708 219 voice~;
#X obj 738 119 metro 1250;
#X obj 738 149 bng 15 250 50 0 empty empty empty 17 7 0 10 -262144 -1 -1;
#X msg 738 199 659 625;
#X obj 738 239 voice~;
#X obj 768 99 metro 1200;
#X obj 768 149 bng 15 250 50 0 empty empty empty 17 7 0 10 -262144 -1 -1;
#X msg 768 179 622 600;
#X obj 768 219 voice~;
#X obj 798 119 metro 1153;
#X obj 798 149 bng 15 250 50 0 empty empty empty 17 7 0 10 -262144 -1 -1;
#X msg 798 199 587 576;
#X obj 798 239 voice~;
#X obj 828 99 metro 1111;
#X obj 828 149 bng 15 250 50 0 empty empty empty 17 7 0 10 -262144 -1 -1;
#X msg 828 179 554 555;
#X obj 828 219 voice~;
#X obj 858 119 metro 1071;
#X obj 858 149 bng 15 250 50 0 empty empty empty 17 7 0 10 -262144 -1 -1;
#X msg 858 199 523 535;
#X obj 858 239 voice~;
#X obj 888 98 metro 1034;
#X obj 888 148 bng 15 250 50 0 empty empty empty 17 7 0 10 -262144 -1 -1;
#X msg 888 178 493 517;
#X obj 888 218 voice~;
#X obj 918 118 metro 1000;
#X obj 918 148 bng 15 250 50 0 empty empty empty 17 7 0 10 -262144 -1 -1;
#X msg 918 198 466 500;
#X obj 918 238 voice~;
#X obj 948 97 metro 967;
#X obj 948 147 bng 15 250 50 0 empty empty empty 17 7 0 10 -262144 -1 -1;
#X msg 948 177 440 483;
#X obj 948 217 voice~;
#X obj 978 116 metro 937;
#X obj 978 146 bng 15 250 50 0 empty empty empty 17 7 0 10 -262144 -1 -1;
#X msg 978 196 415 468;
#X obj 978 236 voice~;
#X obj 1008 95 metro 909;
#X obj 1008 145 bng 15 250 50 0 empty empty empty 17 7 0 10 -262144 -1 -1;
#X msg 1008 175 391 454;
#X obj 1008 215 voice~;
#X obj 1038 114 metro 882;
#X obj 1038 144 bng 15 250 50 0 empty empty empty 17 7 0 10 -262144 -1 -1;
#X msg 1038 194 369 441;
#X obj 1038 234 voice~;
#X obj 1068 93 metro 857;
#X obj 1068 143 bng 15 250 50 0 empty empty empty 17 7 0 10 -262144 -1 -1;
#X msg 1068 173 349 428;
#X obj 1068 213 voice~;
#X obj 1098 112 metro 833;
#X obj 1098 142 bng 15 250 50 0 empty empty empty 17 7 0 10 -262144 -1 -1;
#X msg 1098 192 329 416;
#X obj 1098 232 voice~;
#X obj 1128 91 metro 810;
#X obj 1128 141 bng 15 250 50 0 empty empty empty 17 7 0 10 -262144 -1 -1;
#X msg 1128 171 311 405;
#X obj 1128 211 voice~;
#X obj 1158 109 metro 789;
#X obj 1158 139 bng 15 250 50 0 empty empty empty 17 7 0 10 -262144 -1 -1;
#X msg 1158 189 293 394;
#X obj 1158 229 voice~;
#X obj 1188 88 metro 769;
#X obj 1188 138 bng 15 250 50 0 empty empty empty 17 7 0 10 -262144 -1 -1;
#X msg 1188 168 277 384;
#X obj 1188 208 voice~;
#X obj 1218 106 metro 750;
#X obj 1218 136 bng 15 250 50 0 empty empty empty 17 7 0 10 -262144 -1 -1;
#X msg 1218 186 261 375;
#X obj 1218 226 voice~;
#X obj 1248 85 metro 731;
#X obj 1248 135 bng 15 250 50 0 empty empty empty 17 7 0 10 -262144 -1 -1;
#X msg 1248 165 246 365;
#X obj 1248 205 voice~;
#X obj 1278 103 metro 714;
#X obj 1278 133 bng 15 250 50 0 empty empty empty 17 7 0 10 -262144 -1 -1;
#X msg 1278 183 233 357;
#X obj 1278 223 voice~;
#X obj 1308 81 metro 697;
#X obj 1308 131 bng 15 250 50 0 empty empty empty 17 7 0 10 -262144 -1 -1;
#X msg 1308 161 220 348;
#X obj 1308 201 voice~;
#X obj 1338 99 metro 681;
#X obj 1338 129 bng 15 250 50 0 empty empty empty 17 7 0 10 -262144 -1 -1;
#X msg 1338 179 207 340;
#X obj 1338 219 voice~;
#X obj 1368 77 metro 666;
#X obj 1368 127 bng 15 250 50 0 empty empty empty 17 7 0 10 -262144 -1 -1;
#X msg 1368 157 195 333;
#X obj 1368 197 voice~;
#X obj 1398 95 metro 652;
#X obj 1398 125 bng 15 250 50 0 empty empty empty 17 7 0 10 -262144 -1 -1;
#X msg 1398 175 184 326;
#X obj 1398 215 voice~;
#X obj 1428 73 metro 638;
#X obj 1428 123 bng 15 250 50 0 empty empty empty 17 7 0 10 -262144 -1 -1;
#X msg 1428 153 174 319;
#X obj 1428 193 voice~;
#X obj 1458 91 metro 625;
#X obj 1458 121 bng 15 250 50 0 empty empty empty 17 7 0 10 -262144 -1 -1;
#X msg 1458 171 164 312;
#X obj 1458 211 voice~;
#X connect 2 0 4 0;
#X connect 2 0 5 0;
#X connect 2 0 3 0;
#X connect 2 0 3 1;
#X connect 3 0 4 1;
#X connect 3 1 5 1;
#X connect 4 0 6 0;
#X connect 5 0 6 1;
#X connect 1 0 7 0;
#X connect 7 0 8 0;
#X connect 8 0 9 0;
#X connect 9 0 10 0;
#X connect 10 0 2 0;
#X connect 1 0 11 0;
#X connect 11 0 12 0;
#X connect 12 0 13 0;
#X connect 13 0 14 0;
#X connect 14 0 2 0;
#X connect 1 0 15 0;
#X connect 15 0 16 0;
#X connect 16 0 17 0;
#X connect 17 0 18 0;
#X connect 18 0 2 0;
#X connect 1 0 19 0;
#X connect 19 0 20 0;
#X connect 20 0 21 0;
#X connect 21 0 22 0;
#X connect 22 0 2 0;
#X connect 1 0 23 0;
#X connect 23 0 24 0;
#X connect 24 0 25 0;
#X connect 25 0 26 0;
#X connect 26 0 2 0;
#X connect 1 0 27 0;
#X connect 27 0 28 0;
#X connect 28 0 29 0;
#X connect 29 0 30 0;
#X connect 30 0 2 0;
#X connect 1 0 31 0;
#X connect 31 0 32 0;
#X connect 32 0 33 0;
#X connect 33 0 34 0;
#X connect 34 0 2 0;
#X connect 1 0 35 0;
#X connect 35 0 36 0;
#X connect 36 0 37 0;
#X connect 37 0 38 0;
#X connect 38 0 2 0;
#X connect 1 0 39 0;
#X connect 39 0 40 0;
#X connect 40 0 41 0;
#X connect 41 0 42 0;
#X connect 42 0 2 0;
#X connect 1 0 43 0;
#X connect 43 0 44 0;
#X connect 44 0 45 0;
#X connect 45 0 46 0;
#X connect 46 0 2 0;
#X connect 1 0 47 0;
#X connect 47 0 48 0;
#X connect 48 0 49 0;
#X connect 49 0 50 0;
#X connect 50 0 2 0;
#X connect 1 0 51 0;
#X connect 51 0 52 0;
#X connect 52 0 53 0;
#X connect 53 0 54 0;
#X connect 54 0 2 0;
#X connect 1 0 55 0;
#X connect 55 0 56 0;
#X connect 56 0 57 0;
#X connect 57 0 58 0;
#X connect 58 0 2 0;
#X connect 1 0 59 0;
#X connect 59 0 60 0;
#X connect 60 0 61 0;
#X connect 61 0 62 0;
#X connect 62 0 2 0;
#X connect 1 0 63 0;
#X connect 63 0 64 0;
#X connect 64 0 65 0;
#X connect 65 0 66 0;
#X connect 66 0 2 0;
#X connect 1 0 67 0;
#X connect 67 0 68 0;
#X connect 68 0 69 0;
#X connect 69 0 70 0;
#X connect 70 0 2 0;
#X connect 1 0 71 0;
#X connect 71 0 72 0;
#X connect 72 0 73 0;
#X connect 73 0 74 0;
#X connect 74 0 2 0;
#X connect 1 0 75 0;
#X connect 75 0 76 0;
#X connect 76 0 77 0;
#X connect 77 0 78 0;
#X connect 78 0 2 0;
#X connect 1 0 79 0;
#X connect 79 0 80 0;
#X connect 80 0 81 0;
#X connect 81 0 82 0;
#X connect 82 0 2 0;
#X connect 1 0 83 0;
#X connect 83 0 84 0;
#X connect 84 0 85 0;
#X connect 85 0 86 0;
#X connect 86 0 2 0;
#X connect 1 0 87 0;
#X connect 87 0 88 0;
#X connect 88 0 89 0;
#X connect 89 0 90 0;
#X connect 90 0 2 0;
#X connect 1 0 91 0;
#X connect 91 0 92 0;
#X connect 92 0 93 0;
#X connect 93 0 94 0;
#X connect 94 0 2 0;
#X connect 1 0 95 0;
#X connect 95 0 96 0;
#X connect 96 0 97 0;
#X connect 97 0 98 0;
#X connect 98 0 2 0;
#X connect 1 0 99 0;
#X connect 99 0 100 0;
#X connect 100 0 101 0;
#X connect 101 0 102 0;
#X connect 102 0 2 0;
#X connect 1 0 103 0;
#X connect 103 0 104 0;
#X connect 104 0 105 0;
#X connect 105 0 106 0;
#X connect 106 0 2 0;
#X connect 1 0 107 0;
#X connect 107 0 108 0;
#X connect 108 0 109 0;
#X connect 109 0 110 0;
#X connect 110 0 2 0;
#X connect 1 0 111 0;
#X connect 111 0 112 0;
#X connect 112 0 113 0;
#X connect 113 0 114 0;
#X connect 114 0 2 0;
#X connect 1 0 115 0;
#X connect 115 0 116 0;
#X connect 116 0 117 0;
#X connect 117 0 118 0;
#X connect 118 0 2 0;
#X connect 1 0 119 0;
#X connect 119 0 120 0;
#X connect 120 0 121 0;
#X connect 121 0 122 0;
#X connect 122 0 2 0;
#X connect 1 0 123 0;
#X connect 123 0 124 0;
#X connect 124 0 125 0;
#X connect 125 0 126 0;
#X connect 126 0 2 0;
#X connect 1 0 127 0;
#X connect 127 0 128 0;
#X connect 128 0 129 0;
#X connect 129 0 130 0;
#X connect 130 0 2 0;
#X connect 1 0 131 0;
#X connect 131 0 132 0;
#X connect 132 0 133 0;
#X connect 133 0 134 0;
#X connect 134 0 2 0;
#X connect 1 0 135 0;
#X connect 135 0 136 0;
#X connect 136 0 137 0;
#X connect 137 0 138 0;
#X connect 138 0 2 0;
#X connect 1 0 139 0;
#X connect 139 0 140 0;
#X connect 140 0 141 0;
#X connect 141 0 142 0;
#X connect 142 0 2 0;
#X connect 1 0 143 0;
#X connect 143 0 144 0;
#X connect 144 0 145 0;
#X connect 145 0 146 0;
#X connect 146 0 2 0;
#X connect 1 0 147 0;
#X connect 147 0 148 0;
#X connect 148 0 149 0;
#X connect 149 0 150 0;
#X connect 150 0 2 0;
#X connect 1 0 151 0;
#X connect 151 0 152 0;
#X connect 152 0 153 0;
#X connect 153 0 154 0;
#X connect 154 0 2 0;
#X connect 1 0 155 0;
#X connect 155 0 156 0;
#X connect 156 0 157 0;
#X connect 157 0 158 0;
#X connect 158 0 2 0;
#X connect 1 0 159 0;
#X connect 159 0 160 0;
#X connect 160 0 161 0;
#X connect 161 0 162 0;
#X connect 162 0 2 0;
#X connect 1 0 163 0;
#X connect 163 0 164 0;
#X connect 164 0 165 0;
#X connect 165 0 166 0;
#X connect 166 0 2 0;
#X connect 1 0 167 0;
#X connect 167 0 168 0;
#X connect 168 0 169 0;
#X connect 169 0 170 0;
#X connect 170 0 2 0;
#X connect 1 0 171 0;
#X connect 171 0 172 0;
#X connect 172 0 173 0;
#X connect 173 0 174 0;
#X connect 174 0 2 0;
#X connect 1 0 175 0;
#X connect 175 0 176 0;
#X connect 176 0 177 0;
#X connect 177 0 178 0;
#X connect 178 0 2 0;
#X connect 1 0 179 0;
#X connect 179 0 180 0;
#X connect 180 0 181 0;
#X connect 181 0 182 0;
#X connect 182 0 2 0;
#X connect 1 0 183 0;
#X connect 183 0 184 0;
#X connect 184 0 185 0;
#X connect 185 0 186 0;
#X connect 186 0 2 0;
#X connect 1 0 187 0;
#X connect 187 0 188 0;
#X connect 188 0 189 0;
#X connect 189 0 190 0;
#X connect 190 0 2 0;
#X connect 1 0 191 0;
#X connect 191 0 192 0;
#X connect 192 0 193 0;
#X connect 193 0 194 0;
#X connect 194 0 2 0;
#X connect 1 0 195 0;
#X connect 195 0 196 0;
#X connect 196 0 197 0;
#X connect 197 0 198 0;
#X connect 198 0 2 0;
