#N canvas 28 729 842 479 10;
#X declare -lib mrpeach;
#X declare -path utils;
#X declare -path utils;
#X declare -path utils;
#X declare -path utils;
#X declare -path utils;
#X declare -path utils;
#X declare -path utils;
#X declare -path utils;
#X declare -path utils;
#X declare -path utils;
#X declare -path utils;
#X declare -path utils;
#X declare -path utils;
#X declare -path utils;
#X declare -path utils;
#X declare -path utils;
#X declare -path utils;
#X declare -path utils;
#X declare -path utils;
#X declare -path utils;
#X declare -path utils;
#X declare -path utils;
#X declare -path utils;
#X declare -path utils;
#X declare -path utils;
#X declare -path utils;
#X declare -path utils;
#X declare -path utils;
#X declare -path utils;
#X declare -path utils;
#X declare -path utils;
#X declare -path utils;
#X declare -path utils;
#X declare -path utils;
#X declare -path utils;
#X declare -path utils;
#X declare -path utils;
#X declare -path utils;
#X declare -path utils;
#X declare -path utils;
#X declare -path utils;
#X declare -path utils;
#X declare -path utils;
#X declare -path utils;
#X declare -path utils;
#X declare -path utils;
#X declare -path utils;
#X declare -path utils;
#X obj 60 57 import mrpeach;
#X obj 54 153 unpackOSC;
#X obj 52 114 udpreceive 8000;
#X msg 502 124 0 440 0.5 1000;
#X obj 141 195 routeOSC /note;
#X obj 139 230 print note;
#X obj 240 230 print unhandled;
#X obj 357 310 organ48_vfad~;
#X obj 320 447 dac~;
#X obj 351 363 rev3~ 100 92 3000 40;
#X obj 300 395 +~;
#X obj 339 397 +~;
#X msg 543 153 1 493.88 0.5 1000;
#X msg 592 186 2 523.25 0.5 1000;
#X text 374 25 Tested successfully with Processing/Sound and Music/OSC_Send_test
;
#X connect 1 0 4 0;
#X connect 2 0 1 0;
#X connect 3 0 7 0;
#X connect 4 0 5 0;
#X connect 4 0 7 0;
#X connect 4 1 6 0;
#X connect 7 0 10 0;
#X connect 7 0 11 0;
#X connect 7 0 9 0;
#X connect 7 0 9 1;
#X connect 9 0 10 1;
#X connect 9 1 11 1;
#X connect 10 0 8 0;
#X connect 11 0 8 1;
#X connect 12 0 7 0;
#X connect 13 0 7 0;
