#N canvas 63 348 344 261 10;
#X obj 59 43 dac~;
#X obj 90 -41 rev3~ 100 92 3000 40;
#X obj 39 -9 +~;
#X obj 78 -7 +~;
#X obj 78 -143 r tinehit;
#X obj 78 -97 organ~;
#X connect 1 0 2 1;
#X connect 1 1 3 1;
#X connect 2 0 0 0;
#X connect 3 0 0 1;
#X connect 4 0 5 0;
#X connect 5 0 2 0;
#X connect 5 0 3 0;
#X connect 5 0 1 0;
#X connect 5 0 1 1;
